<?xml version="1.0" encoding="UTF-8"?>
<svg xmlns="http://www.w3.org/2000/svg" version="1.1" width="2048" height="3072" viewBox="0 0 1524 2000">

<path d="M0 0 C0.90443848 0.23976562 1.80887695 0.47953125 2.74072266 0.7265625 C53.02556346 14.35805165 96.5447713 41.2087231 134 77 C134.87140625 77.82886719 135.7428125 78.65773438 136.640625 79.51171875 C141.31393114 84.06247315 145.49891193 88.87963543 149.56323242 93.98022461 C151.90615179 96.88369817 154.31315165 99.72034924 156.734375 102.55859375 C161.86634613 108.6668585 166.41026617 115.09495914 170.8125 121.75 C171.38836349 122.61889359 171.38836349 122.61889359 171.9758606 123.50534058 C203.69850663 171.52941384 221.26442139 226.7573213 221.1875 284.375 C221.18659363 285.63173019 221.18659363 285.63173019 221.18566895 286.91384888 C221.02067861 371.40399088 185.79678698 445.43743051 126.62548828 504.56005859 C121.00734307 510.10740172 115.28446558 515.21138775 109 520 C108.03578125 520.76957031 107.0715625 521.53914062 106.078125 522.33203125 C92.30724261 533.2709282 77.53983018 542.7817086 62 551 C61.03827881 551.50974365 61.03827881 551.50974365 60.05712891 552.02978516 C26.87578837 569.45811549 -9.01227722 580.09911076 -46.30712891 583.73364258 C-48.0141785 583.90249037 -49.71993415 584.08551303 -51.42333984 584.2878418 C-124.07672134 592.66748647 -201.8042542 567.62478813 -259 523 C-263.44207345 519.45422589 -267.73901181 515.76038029 -272 512 C-272.79921875 511.31164062 -273.5984375 510.62328125 -274.421875 509.9140625 C-286.5399758 499.30055811 -298.21314328 487.80876335 -308 475 C-309.01203228 473.71536643 -310.02513823 472.4315783 -311.0390625 471.1484375 C-322.44362406 456.6072837 -332.28046503 441.28573557 -341 425 C-341.33064453 424.38930664 -341.66128906 423.77861328 -342.00195312 423.14941406 C-362.67656902 384.65681408 -373.95076479 340.62053037 -375 297 C-375.02723145 296.04174316 -375.05446289 295.08348633 -375.08251953 294.09619141 C-375.89812718 261.77453215 -371.40545292 229.91142473 -362 199 C-361.72736328 198.09733398 -361.45472656 197.19466797 -361.17382812 196.26464844 C-350.43229862 161.44770464 -331.77096058 129.29755316 -309 101 C-308.18015625 99.97390625 -307.3603125 98.9478125 -306.515625 97.890625 C-292.95656757 81.33295402 -277.29254775 65.61415936 -260 53 C-259.01128906 52.20464844 -258.02257812 51.40929687 -257.00390625 50.58984375 C-213.4075 15.54610828 -157.13475551 -3.52273775 -102 -9 C-101.10522949 -9.0935376 -100.21045898 -9.1870752 -99.28857422 -9.28344727 C-66.28534378 -12.55783457 -31.95666814 -8.49745884 0 0 Z " fill="#3E4752" transform="translate(588,215)"/>
<path d="M0 0 C2.39943311 2.11984212 4.7685615 4.27004731 7.125 6.4375 C8.57132813 7.75814453 8.57132813 7.75814453 10.046875 9.10546875 C42.17301495 39.79243191 63.59904148 87.36811535 65.24682617 131.71630859 C65.33180986 135.56124614 65.37158688 139.404284 65.375 143.25 C65.37567474 143.93624451 65.37634949 144.62248901 65.37704468 145.32952881 C65.3590002 156.93229759 64.52540876 168.07010088 62.125 179.4375 C61.95339355 180.27893555 61.78178711 181.12037109 61.60498047 181.98730469 C53.61038141 220.46711751 36.15005153 253.06318011 9.125 281.4375 C7.97837891 282.68080078 7.97837891 282.68080078 6.80859375 283.94921875 C-13.1004725 304.8688975 -39.85056459 319.01505121 -66.875 328.4375 C-67.8973877 328.79521484 -67.8973877 328.79521484 -68.94042969 329.16015625 C-117.50523037 345.5909733 -170.94820436 338.06397729 -216.19140625 315.859375 C-230.93615076 308.39137593 -244.44900246 298.74893085 -256.578125 287.546875 C-258.63435351 285.65850188 -260.73786408 283.85769417 -262.875 282.0625 C-282.33122049 264.9363658 -296.83096543 241.14897527 -306.875 217.4375 C-307.1647168 216.77717773 -307.45443359 216.11685547 -307.75292969 215.43652344 C-321.80311487 182.96941068 -325.05503043 142.91012644 -317.875 108.4375 C-317.70871094 107.59993164 -317.54242188 106.76236328 -317.37109375 105.89941406 C-310.52624933 72.0174342 -294.64795226 42.23064563 -271.875 16.4375 C-271.153125 15.59316406 -270.43125 14.74882812 -269.6875 13.87890625 C-265.41412984 8.92947558 -260.88768419 4.62497874 -255.875 0.4375 C-255.02550781 -0.31144531 -254.17601562 -1.06039062 -253.30078125 -1.83203125 C-183.17576911 -62.58153017 -74.95027657 -61.93432268 0 0 Z " fill="#3E4652" transform="translate(638.875,358.5625)"/>
<path d="M0 0 C2.39943311 2.11984212 4.7685615 4.27004731 7.125 6.4375 C8.57132813 7.75814453 8.57132813 7.75814453 10.046875 9.10546875 C42.17301495 39.79243191 63.59904148 87.36811535 65.24682617 131.71630859 C65.33180986 135.56124614 65.37158688 139.404284 65.375 143.25 C65.37567474 143.93624451 65.37634949 144.62248901 65.37704468 145.32952881 C65.3590002 156.93229759 64.52540876 168.07010088 62.125 179.4375 C61.95339355 180.27893555 61.78178711 181.12037109 61.60498047 181.98730469 C53.61038141 220.46711751 36.15005153 253.06318011 9.125 281.4375 C7.97837891 282.68080078 7.97837891 282.68080078 6.80859375 283.94921875 C-13.1004725 304.8688975 -39.85056459 319.01505121 -66.875 328.4375 C-67.8973877 328.79521484 -67.8973877 328.79521484 -68.94042969 329.16015625 C-117.50523037 345.5909733 -170.94820436 338.06397729 -216.19140625 315.859375 C-230.93615076 308.39137593 -244.44900246 298.74893085 -256.578125 287.546875 C-258.63435351 285.65850188 -260.73786408 283.85769417 -262.875 282.0625 C-282.33122049 264.9363658 -296.83096543 241.14897527 -306.875 217.4375 C-307.1647168 216.77717773 -307.45443359 216.11685547 -307.75292969 215.43652344 C-321.80311487 182.96941068 -325.05503043 142.91012644 -317.875 108.4375 C-317.70871094 107.59993164 -317.54242188 106.76236328 -317.37109375 105.89941406 C-310.52624933 72.0174342 -294.64795226 42.23064563 -271.875 16.4375 C-271.153125 15.59316406 -270.43125 14.74882812 -269.6875 13.87890625 C-265.41412984 8.92947558 -260.88768419 4.62497874 -255.875 0.4375 C-255.02550781 -0.31144531 -254.17601562 -1.06039062 -253.30078125 -1.83203125 C-183.17576911 -62.58153017 -74.95027657 -61.93432268 0 0 Z M-247.875 24.4375 C-249.54166667 26.10416667 -251.20833333 27.77083333 -252.875 29.4375 C-271.40831993 48.31871502 -284.7028834 72.01455038 -291.875 97.4375 C-292.17664063 98.40558594 -292.47828125 99.37367188 -292.7890625 100.37109375 C-304.55721801 141.32189753 -297.62358835 188.94063312 -277.5612793 226.15136719 C-271.04900827 237.73899938 -263.25534508 248.45657732 -254.1015625 258.08984375 C-252.11481638 260.18464097 -250.27478741 262.3377278 -248.4375 264.5625 C-244.1300215 269.50402324 -239.0342656 273.42550118 -233.875 277.4375 C-232.50021484 278.53578125 -232.50021484 278.53578125 -231.09765625 279.65625 C-194.40308611 308.24680671 -147.32725536 319.2626563 -101.43554688 313.66772461 C-67.00224565 308.51335699 -34.90561619 292.45555081 -9.875 268.4375 C-8.46347656 267.12072266 -8.46347656 267.12072266 -7.0234375 265.77734375 C5.09849913 254.26120795 14.4428075 240.98827138 22.18603516 226.21289062 C23.00573559 224.66300463 23.86490182 223.13412064 24.73046875 221.609375 C32.27303801 207.77796113 37.49420403 190.94534991 40.125 175.4375 C40.32738281 174.2825 40.52976562 173.1275 40.73828125 171.9375 C47.14258588 128.02226827 37.89007176 81.79052898 11.43359375 45.6953125 C-17.76778379 7.1355217 -58.23464959 -17.10339724 -106.30395508 -23.90625 C-157.07286161 -29.65502923 -212.36787928 -13.52151908 -247.875 24.4375 Z " fill="#71BC7B" transform="translate(638.875,358.5625)"/>
<path d="M0 0 C1.1127832 -0.01836914 1.1127832 -0.01836914 2.24804688 -0.03710938 C4.18763629 -0.04238478 6.1267371 0.06561098 8.0625 0.1875 C10.51375785 2.63875785 10.60958542 4.01872823 11.24609375 7.39453125 C11.55220581 8.97923218 11.55220581 8.97923218 11.86450195 10.59594727 C12.07421631 11.71928467 12.28393066 12.84262207 12.5 14 C12.93866978 16.27631856 13.37876149 18.55236358 13.8203125 20.828125 C14.03204102 21.92447266 14.24376953 23.02082031 14.46191406 24.15039062 C15.52543748 29.52853344 16.76028973 34.8622011 18.0625 40.1875 C19.63842716 35.73954002 20.76821681 31.28612605 21.71875 26.671875 C22.02190833 25.24213933 22.32530051 23.81245323 22.62890625 22.3828125 C23.09918277 20.14936912 23.56706804 17.91548387 24.03076172 15.68066406 C24.48270547 13.50962681 24.94383728 11.34070281 25.40625 9.171875 C25.81133789 7.23393066 25.81133789 7.23393066 26.22460938 5.25683594 C27.0625 2.1875 27.0625 2.1875 29.0625 0.1875 C31.60785141 -0.01099071 34.01966759 -0.09101775 36.5625 -0.0625 C37.25214844 -0.07023437 37.94179688 -0.07796875 38.65234375 -0.0859375 C43.80916707 -0.06583293 43.80916707 -0.06583293 46.0625 2.1875 C46.79504741 4.73597624 47.43005721 7.24425043 48.0078125 9.828125 C48.18255096 10.58792664 48.35728943 11.34772827 48.537323 12.1305542 C48.90557651 13.74035579 49.27015506 15.35100179 49.63134766 16.96240234 C50.1827179 19.41621779 50.74865296 21.86633623 51.31640625 24.31640625 C51.67275915 25.8826116 52.02825544 27.44901214 52.3828125 29.015625 C52.63588669 30.10813568 52.63588669 30.10813568 52.89407349 31.22271729 C53.79397411 35.2846811 54.23788428 39.02885314 54.0625 43.1875 C54.7225 43.1875 55.3825 43.1875 56.0625 43.1875 C56.195354 42.03628662 56.32820801 40.88507324 56.46508789 39.69897461 C57.00079024 35.42456395 57.76594696 31.22456944 58.62109375 27.00390625 C58.77030777 26.26293198 58.91952179 25.5219577 59.07325745 24.75852966 C59.38674779 23.20952638 59.70194634 21.66086788 60.01879883 20.11254883 C60.50335194 17.73354303 60.97535621 15.35224494 61.44726562 12.97070312 C61.75444142 11.46078128 62.0623571 9.95100972 62.37109375 8.44140625 C62.51075058 7.72795547 62.65040741 7.0145047 62.79429626 6.2794342 C63.1519177 4.56722002 63.59912624 2.87416988 64.0625 1.1875 C67.09673981 -0.3296199 70.23754794 0.00310743 73.5625 0 C74.25214844 -0.01224609 74.94179688 -0.02449219 75.65234375 -0.03710938 C77.45727494 -0.04238695 79.26167842 0.06565542 81.0625 0.1875 C82.0525 1.1775 82.0525 1.1775 83.0625 2.1875 C82.59083248 10.83273013 79.53758514 19.64888761 77.40234375 28.0078125 C77.04865006 29.40211405 76.69518435 30.79647346 76.3419342 32.19088745 C75.60723115 35.08751105 74.86990145 37.9834491 74.13061523 40.87890625 C73.18186324 44.59559574 72.23970631 48.31392099 71.29942989 52.03276253 C70.5736628 54.90032475 69.84455945 57.7670303 69.11441231 60.63348007 C68.76531808 62.0056054 68.41725487 63.37799345 68.0702343 64.75064468 C67.58789376 66.65640215 67.10059429 68.56090249 66.61303711 70.46533203 C66.33705185 71.5491214 66.06106659 72.63291077 65.77671814 73.74954224 C65.0625 76.1875 65.0625 76.1875 64.0625 77.1875 C61.23663249 77.34072744 58.45206118 77.41912755 55.625 77.4375 C54.83544922 77.458125 54.04589844 77.47875 53.23242188 77.5 C50.94140625 77.515625 50.94140625 77.515625 47.0625 77.1875 C45.22368667 74.42928 44.71044378 73.25720024 44.1328125 70.15234375 C43.9790918 69.35086914 43.82537109 68.54939453 43.66699219 67.72363281 C43.50875977 66.86608398 43.35052734 66.00853516 43.1875 65.125 C42.84282597 63.32650011 42.49643125 61.52832925 42.1484375 59.73046875 C41.88305176 58.35640869 41.88305176 58.35640869 41.61230469 56.95458984 C40.74712855 52.60027976 39.78645639 48.26858148 38.8125 43.9375 C38.63734863 43.15753662 38.46219727 42.37757324 38.28173828 41.57397461 C37.87712639 39.77807639 37.47011035 37.98272004 37.0625 36.1875 C35.62042268 41.11383122 34.33451999 46.05924757 33.15234375 51.0546875 C32.79894527 52.53127804 32.44542626 54.00783974 32.09179688 55.484375 C31.54174958 57.78839335 30.99284257 60.09266908 30.44604492 62.39746094 C29.91377918 64.63813182 29.37713301 66.87771675 28.83984375 69.1171875 C28.67628891 69.81190155 28.51273407 70.5066156 28.34422302 71.22238159 C27.17592866 76.07407134 27.17592866 76.07407134 26.0625 77.1875 C23.40427343 77.31408222 20.78362576 77.37270214 18.125 77.375 C17.38314453 77.38724609 16.64128906 77.39949219 15.87695312 77.41210938 C13.93736371 77.41738478 11.9982629 77.30938902 10.0625 77.1875 C7.84681862 74.97181862 7.5661054 73.96589104 6.81323242 70.99511719 C6.58927292 70.12530212 6.36531342 69.25548706 6.13456726 68.35931396 C5.89808975 67.41058411 5.66161224 66.46185425 5.41796875 65.484375 C5.16630447 64.4961676 4.9146402 63.50796021 4.65534973 62.48980713 C4.1200587 60.3822195 3.58815282 58.27376971 3.05932617 56.16455078 C2.27017686 53.01795181 1.47109844 49.87402409 0.66992188 46.73046875 C-1.9275145 36.49504042 -4.44101903 26.24064771 -6.82421875 15.953125 C-7.03883255 15.04141541 -7.25344635 14.12970581 -7.4745636 13.19036865 C-9.32519275 5.07707493 -9.32519275 5.07707493 -8.9375 1.1875 C-6.89483571 -0.85516429 -2.80058566 0.00242056 0 0 Z " fill="#FCFCFC" transform="translate(411.9375,504.8125)"/>
<path d="M0 0 C1.3161882 -0.00461494 1.3161882 -0.00461494 2.65896606 -0.00932312 C3.60279144 -0.0021376 4.54661682 0.00504791 5.51904297 0.01245117 C6.48905243 0.01290939 7.45906189 0.01336761 8.45846558 0.01383972 C10.50780461 0.01686034 12.55714138 0.02474095 14.60644531 0.03710938 C17.75577861 0.05538828 20.90481837 0.0576189 24.05419922 0.05737305 C26.04248303 0.06228736 28.03076484 0.0681153 30.01904297 0.07495117 C31.44085373 0.07662041 31.44085373 0.07662041 32.89138794 0.07832336 C34.19811966 0.08789314 34.19811966 0.08789314 35.53125 0.09765625 C36.30163605 0.10146805 37.07202209 0.10527985 37.86575317 0.10920715 C39.63623047 0.24291992 39.63623047 0.24291992 40.63623047 1.24291992 C40.70936613 3.77341394 40.72870574 6.27596829 40.69873047 8.80541992 C40.69421875 9.51633789 40.68970703 10.22725586 40.68505859 10.9597168 C40.67323911 12.72082005 40.6553031 14.48188028 40.63623047 16.24291992 C37.25723227 17.24450061 34.07346519 17.43870108 30.55810547 17.55932617 C29.39794922 17.6012207 28.23779297 17.64311523 27.04248047 17.6862793 C25.83591797 17.7255957 24.62935547 17.76491211 23.38623047 17.80541992 C22.16419922 17.84860352 20.94216797 17.89178711 19.68310547 17.9362793 C16.66761166 18.04229275 13.65193579 18.14310432 10.63623047 18.24291992 C10.63623047 22.53291992 10.63623047 26.82291992 10.63623047 31.24291992 C12.50150391 31.30350586 14.36677734 31.3640918 16.28857422 31.42651367 C18.71696837 31.51089802 21.14535334 31.59554706 23.57373047 31.68041992 C25.4212793 31.73939453 25.4212793 31.73939453 27.30615234 31.79956055 C28.47597656 31.84145508 29.64580078 31.88334961 30.85107422 31.92651367 C32.47710571 31.98150024 32.47710571 31.98150024 34.13598633 32.03759766 C36.63623047 32.24291992 36.63623047 32.24291992 37.63623047 33.24291992 C37.70894788 35.59605547 37.71993915 37.95125661 37.69873047 40.30541992 C37.68970703 41.59577148 37.68068359 42.88612305 37.67138672 44.21557617 C37.65978516 45.21459961 37.64818359 46.21362305 37.63623047 47.24291992 C28.27710718 48.23555421 19.03228849 48.35023531 9.63623047 48.24291992 C9.77552072 52.13901601 9.92380978 56.03471955 10.07373047 59.93041992 C10.11304688 61.03321289 10.15236328 62.13600586 10.19287109 63.2722168 C10.23476563 64.33891602 10.27666016 65.40561523 10.31982422 66.50463867 C10.35648193 67.48392334 10.39313965 68.46320801 10.4309082 69.47216797 C10.6284238 72.13757169 11.0519608 74.6376178 11.63623047 77.24291992 C9.01095858 77.29674099 6.38678334 77.33650305 3.76123047 77.36791992 C3.01486328 77.38467773 2.26849609 77.40143555 1.49951172 77.41870117 C-0.45571414 77.43631582 -2.41118975 77.34612181 -4.36376953 77.24291992 C-7.22547034 74.38121911 -6.66047443 72.35693767 -6.73022461 68.34643555 C-6.74508911 67.63734543 -6.75995361 66.92825531 -6.77526855 66.19767761 C-6.82153887 63.8482336 -6.85307851 61.49887153 -6.88330078 59.14916992 C-6.90962183 57.52013464 -6.9363761 55.8911063 -6.96354675 54.26208496 C-7.0180214 50.84576365 -7.06479564 47.42943725 -7.10668945 44.01293945 C-7.16142821 39.62742877 -7.23891665 35.24265351 -7.3226366 30.85761261 C-7.38374177 27.49322349 -7.43094401 24.12874682 -7.4740963 20.76408386 C-7.49688486 19.14683159 -7.52447839 17.52963983 -7.5568943 15.91255188 C-7.60043872 13.65474834 -7.6248522 11.39752619 -7.64428711 9.1394043 C-7.66268143 7.85304077 -7.68107574 6.56667725 -7.70002747 5.24133301 C-7.58906235 4.25185669 -7.47809723 3.26238037 -7.36376953 2.24291992 C-4.23778787 0.15893215 -3.54982114 -0.00655273 0 0 Z " fill="#FBFBFB" transform="translate(543.36376953125,504.757080078125)"/>
<path d="M0 0 C1.51225693 1.2772947 3.01348081 2.56784145 4.5 3.875 C5.15355469 4.42285156 5.80710937 4.97070312 6.48046875 5.53515625 C8.1875 7.0625 8.1875 7.0625 10.5 9.875 C10.5 12.625 10.5 12.625 9.5 14.875 C8.51 15.865 8.51 15.865 7.5 16.875 C2.81782793 16.68389094 0.59011423 14.46699146 -2.75 11.375 C-12.81931976 2.52105355 -25.50440942 -3.86342785 -38.5 -7.125 C-39.18666748 -7.29797607 -39.87333496 -7.47095215 -40.58081055 -7.64916992 C-65.11123471 -13.24119671 -91.13628897 -9.26126245 -112.5 3.875 C-117.65269542 7.29498087 -122.46519442 11.13301519 -127.16015625 15.15234375 C-129.5 16.875 -129.5 16.875 -132.25 16.6875 C-134.5 15.875 -134.5 15.875 -135.5 14.875 C-135.90748771 11.32190594 -136.0007528 9.53613215 -133.8046875 6.63671875 C-122.64423965 -2.89093046 -111.21164496 -9.87481624 -97.5 -15.125 C-96.75878906 -15.43050781 -96.01757812 -15.73601562 -95.25390625 -16.05078125 C-64.0007217 -27.93064672 -25.92479762 -20.21516958 0 0 Z " fill="#F8F9F9" transform="translate(575.5,416.125)"/>
<path d="M0 0 C5.14743464 4.31465581 5.14743464 4.31465581 6.92578125 6.72265625 C6.77507613 10.12859194 6.35091903 11.29751847 3.92578125 13.72265625 C-0.47766541 13.83005739 -2.77653245 12.31399192 -6.01171875 9.59765625 C-19.83437361 -1.65495725 -37.37643308 -5.56161628 -54.890625 -4.03125 C-68.64113679 -2.25521852 -80.57070777 3.6176433 -91.140625 12.44921875 C-93.07421875 13.72265625 -93.07421875 13.72265625 -96.32421875 13.41015625 C-97.23171875 13.18328125 -98.13921875 12.95640625 -99.07421875 12.72265625 C-100.13671875 10.22265625 -100.13671875 10.22265625 -100.07421875 6.72265625 C-90.61813185 -5.69804168 -72.78584666 -11.91105576 -58.01953125 -14.89453125 C-37.71349241 -17.53377768 -16.44118738 -12.17943106 0 0 Z " fill="#F9F9F9" transform="translate(559.07421875,439.27734375)"/>
<path d="M0 0 C5.28 0.33 10.56 0.66 16 1 C17.03121502 4.09364505 17.12677622 6.22317244 17.12939453 9.46533203 C17.13254669 10.58303986 17.13569885 11.70074768 17.13894653 12.85232544 C17.1369223 14.05863617 17.13489807 15.2649469 17.1328125 16.5078125 C17.13424759 18.3623555 17.13424759 18.3623555 17.13571167 20.25436401 C17.13656705 23.53865308 17.13253796 26.82289494 17.12695312 30.10717773 C17.12499904 32.12599181 17.12694979 34.14476252 17.13037109 36.16357422 C17.13652141 40.02834107 17.13580779 43.89304303 17.1328125 47.7578125 C17.13483673 48.96817169 17.13686096 50.17853088 17.13894653 51.42556763 C17.13579437 52.53697113 17.13264221 53.64837463 17.12939453 54.79345703 C17.12859894 55.77702179 17.12780334 56.76058655 17.12698364 57.7739563 C17 60 17 60 16 61 C13.48863896 61.09975032 11.01096585 61.13882183 8.5 61.125 C7.79746094 61.12886719 7.09492188 61.13273438 6.37109375 61.13671875 C1.12661378 61.12661378 1.12661378 61.12661378 0 60 C-0.09386381 58.1281906 -0.11743804 56.2528194 -0.11352539 54.37866211 C-0.11344986 53.17749252 -0.11337433 51.97632294 -0.11329651 50.73875427 C-0.10813522 49.4314888 -0.10297394 48.12422333 -0.09765625 46.77734375 C-0.09579198 45.43355868 -0.09436812 44.08977293 -0.09336853 42.74598694 C-0.08954402 39.20317723 -0.07971432 35.6604083 -0.06866455 32.11761475 C-0.05844899 28.50484773 -0.0538706 24.89207416 -0.04882812 21.27929688 C-0.03809198 14.18617961 -0.02049572 7.09309675 0 0 Z " fill="#FDFDFD" transform="translate(504,521)"/>
<path d="M0 0 C2.31284456 0.14026283 4.62527591 0.28735558 6.9375 0.4375 C8.86916016 0.55931641 8.86916016 0.55931641 10.83984375 0.68359375 C14 1 14 1 15 2 C15.09365006 3.7492872 15.11744438 5.50236254 15.11352539 7.25415039 C15.11344986 8.37523697 15.11337433 9.49632355 15.11329651 10.65138245 C15.10813522 11.8711528 15.10297394 13.09092316 15.09765625 14.34765625 C15.0962413 15.58921982 15.09482635 16.83078339 15.09336853 18.10997009 C15.08870591 21.41605491 15.07971497 24.72207146 15.06866455 28.02813721 C15.05844827 31.3996115 15.05387045 34.77109283 15.04882812 38.14257812 C15.03777395 44.76173775 15.02101736 51.38086493 15 58 C12.87527424 58.05386629 10.75016348 58.09273071 8.625 58.125 C7.44164062 58.14820313 6.25828125 58.17140625 5.0390625 58.1953125 C2 58 2 58 0 56 C-0.24050903 53.6335144 -0.24050903 53.6335144 -0.22705078 50.63232422 C-0.22689972 49.51131317 -0.22674866 48.39030212 -0.22659302 47.23532104 C-0.21627045 46.02071198 -0.20594788 44.80610291 -0.1953125 43.5546875 C-0.1924826 42.31453888 -0.18965271 41.07439026 -0.18673706 39.79666138 C-0.17742174 36.49875367 -0.1594489 33.20104028 -0.1373291 29.90319824 C-0.11687474 26.5383543 -0.10773623 23.17348193 -0.09765625 19.80859375 C-0.07556519 13.20565277 -0.04206483 6.60284229 0 0 Z " fill="#FDFEFD" transform="translate(597,524)"/>
<path d="M0 0 C2.63226475 1.95574811 3.93790606 3.15647947 4.546875 6.4296875 C4.046875 8.7421875 4.046875 8.7421875 2.046875 10.7421875 C-3.53283542 10.52758325 -6.43041633 8.8176294 -10.953125 5.7421875 C-19.76532509 1.03971301 -32.1686087 1.12919738 -41.609375 3.76171875 C-45.49318326 5.35273426 -49.02503914 7.15711996 -52.57421875 9.39453125 C-55.5466793 11.07843747 -57.58921568 11.04799744 -60.953125 10.7421875 C-61.953125 9.7421875 -61.953125 9.7421875 -62.515625 7.0546875 C-61.87018634 3.25377095 -61.38546838 2.87239483 -58.453125 0.6171875 C-56.97406688 -0.37316085 -55.47364972 -1.3323897 -53.953125 -2.2578125 C-53.32921875 -2.64066406 -52.7053125 -3.02351563 -52.0625 -3.41796875 C-34.94237413 -12.87719796 -16.01922596 -10.31638152 0 0 Z " fill="#F8F8F9" transform="translate(540.953125,462.2578125)"/>
<path d="M0 0 C3.125 1.875 3.125 1.875 5 5 C5.68394713 8.47673126 5.7296881 11.52828081 5 15 C2.80977082 17.82424288 1.16982793 19.41508603 -2 21 C-6.63554388 21.41204834 -9.30416098 20.87454146 -13 18 C-15.30726002 15.03352283 -15.49531512 11.7499092 -15.36328125 8.0390625 C-14.86398362 5.23655322 -13.72729866 3.12811146 -11.7578125 1.07421875 C-8.06045274 -1.18527888 -4.11586423 -0.87040408 0 0 Z " fill="#FBFBFB" transform="translate(517,492)"/>
<path d="M0 0 C2.28693467 1.68873185 2.92344568 2.54367622 3.3984375 5.375 C3.39070312 6.24125 3.38296875 7.1075 3.375 8 C3.38273438 8.86625 3.39046875 9.7325 3.3984375 10.625 C3 13 3 13 1.72265625 14.78515625 C-0.74286206 16.52387778 -3.11300933 16.47697837 -6.05859375 16.3359375 C-8 16 -8 16 -10.5 14.5625 C-12.73199153 10.74951447 -12.89853585 7.3035138 -12 3 C-8.4155313 -1.56205107 -5.39619856 -1.49894405 0 0 Z " fill="#F9F9F9" transform="translate(609,505)"/>
<path d="M0 0 C0.33 0 0.66 0 1 0 C1.03738281 0.61488281 1.07476563 1.22976563 1.11328125 1.86328125 C1.17902344 2.67152344 1.24476563 3.47976563 1.3125 4.3125 C1.37050781 5.11300781 1.42851563 5.91351562 1.48828125 6.73828125 C2.09947765 9.43967603 2.75909159 10.39350401 5 12 C7.79881044 12.5154245 10.11759395 12.22876238 13 12 C15.49505962 9.50494038 15.35948376 8.32671112 15.625 4.875 C15.69976563 3.96492188 15.77453125 3.05484375 15.8515625 2.1171875 C15.90054688 1.41851562 15.94953125 0.71984375 16 0 C18.41486943 2.41486943 18.2961925 3.12707789 18.3125 6.4375 C18.32925781 7.21996094 18.34601562 8.00242187 18.36328125 8.80859375 C17.90848524 11.55204066 17.23851946 12.37969081 15 14 C10.82497597 15.23530674 7.13315744 15.43397519 3.0625 13.875 C0.57492782 11.61357075 -0.25373507 10.28356568 -1 7 C-0.625 3.1875 -0.625 3.1875 0 0 Z " fill="#28313D" transform="translate(596,508)"/>
<path d="M0 0 C2.1519437 3.22791555 2.20086443 4.28400809 2 8 C2.66 8 3.32 8 4 8 C4 8.99 4 9.98 4 11 C4.66 11 5.32 11 6 11 C5.67 13.97 5.34 16.94 5 20 C4.34 20 3.68 20 3 20 C2.49395076 17.60530271 1.99500483 15.20948283 1.5 12.8125 C1.28537109 11.80219727 1.28537109 11.80219727 1.06640625 10.77148438 C0.31930158 7.12490207 -0.17352282 3.72351043 0 0 Z " fill="#28303C" transform="translate(463,528)"/>
<path d="M0 0 C0.66 0.33 1.32 0.66 2 1 C-3.28 6.28 -8.56 11.56 -14 17 C-14.66 16.67 -15.32 16.34 -16 16 C-12.21309138 11.36103694 -8.30424428 7.3506875 -3.734375 3.48046875 C-1.91019463 1.96268408 -1.91019463 1.96268408 0 0 Z " fill="#76CC80" transform="translate(385,357)"/>
<path d="M0 0 C3.63201262 3.86633601 4.80671378 6.68462908 5 12 C4.0078125 14.21484375 4.0078125 14.21484375 3 16 C2.49193553 14.27318563 1.99389533 12.54342021 1.5 10.8125 C1.08234375 9.36810547 1.08234375 9.36810547 0.65625 7.89453125 C0.03322392 5.14654124 -0.12302812 2.80401584 0 0 Z " fill="#28303B" transform="translate(427,532)"/>
<path d="M0 0 C2.35273568 3.52910353 2.40753493 4.84314368 2 9 C0.5 12.375 0.5 12.375 -1 15 C-1.33 15 -1.66 15 -2 15 C-1.85816304 13.24967156 -1.71136571 11.49974466 -1.5625 9.75 C-1.48128906 8.77546875 -1.40007812 7.8009375 -1.31640625 6.796875 C-1.04925416 4.43538247 -0.64628032 2.28098935 0 0 Z " fill="#29303A" transform="translate(448,538)"/>
<path d="M0 0 C0.99 0.495 0.99 0.495 2 1 C2.4140625 3.06640625 2.4140625 3.06640625 2.625 5.5625 C2.69976562 6.38878906 2.77453125 7.21507812 2.8515625 8.06640625 C2.92503906 9.02353516 2.92503906 9.02353516 3 10 C2.34 10 1.68 10 1 10 C-0.1577506 6.52674819 -0.06866652 3.63932552 0 0 Z " fill="#2F3744" transform="translate(412,551)"/>
<path d="M0 0 C0.33 0 0.66 0 1 0 C1.29296875 6.0546875 1.29296875 6.0546875 1 8 C0.01 8.66 -0.98 9.32 -2 10 C-2.1953125 3.9453125 -2.1953125 3.9453125 -2 2 C-1.34 1.34 -0.68 0.68 0 0 Z " fill="#454D56" transform="translate(216,472)"/>
<path d="M0 0 C0 3.90838866 -1.50567876 5.11594107 -4 8 C-4.99 7.67 -5.98 7.34 -7 7 C-4.69 4.69 -2.38 2.38 0 0 Z " fill="#222A36" transform="translate(302,291)"/>
</svg>
