<?xml version="1.0" encoding="UTF-8"?>
<svg xmlns="http://www.w3.org/2000/svg" version="1.1" width="100%" height="100%" viewBox="0 0 1024 1536">

  <path d="M0 0 C17.37315115 -0.76823789 32.93020948 1.71328246 49.69335938 6.171875 C50.42522461 6.36330078 51.15708984 6.55472656 51.91113281 6.75195312 C54.82528995 7.51607659 57.73175386 8.30391509 60.63476562 9.109375 C67.33412033 10.91419984 74.12635894 12.37104763 80.89477539 13.890625 C87.8948726 15.47599974 94.82185869 17.25727125 101.75097656 19.12744141 C108.74177144 20.99675805 115.78424199 22.66234184 122.81835938 24.359375 C124.43038194 24.74965805 126.04236012 25.14012445 127.65429688 25.53076172 C130.99560331 26.34036414 134.33709673 27.1491884 137.67871094 27.95751953 C142.55699168 29.13814526 147.43398169 30.32402911 152.31054688 31.51171875 C153.0903038 31.70161377 153.87006073 31.89150879 154.67344666 32.0871582 C156.2361079 32.46773844 157.79876559 32.84833325 159.36141968 33.22894287 C169.8920589 35.79362684 180.42443852 38.35040429 190.96289062 40.8828125 C203.07507243 43.79400945 215.16686353 46.77807917 227.2484436 49.81314087 C236.39793452 52.11099085 245.55741797 54.35707064 254.73925781 56.5222168 C259.65062217 57.68121617 264.55011297 58.87599499 269.44335938 60.109375 C282.88620318 63.49677876 296.37132465 66.72185715 309.88085938 69.83203125 C323.53692023 72.97836022 337.13027754 76.27164392 350.68658447 79.81835938 C358.49721292 81.86016489 366.30809688 83.81611428 374.19335938 85.546875 C383.94420337 87.71851891 393.65783113 90.04274901 403.35205078 92.45367432 C405.10197044 92.88604292 406.85342432 93.31225509 408.60644531 93.73187256 C431.17796687 99.14819422 431.17796687 99.14819422 437.69335938 109.171875 C441.70658257 116.31319949 442.28323875 123.41482422 440.10449219 131.30419922 C438.03372335 137.42311811 435.34700112 143.28892867 432.69335938 149.171875 C431.70339046 151.39696391 430.71382715 153.62223331 429.72460938 155.84765625 C428.10349773 159.48098427 426.47818179 163.11226857 424.83862305 166.73730469 C421.03720599 175.14228715 417.31432166 183.57776474 413.65585327 192.04595947 C412.82689961 193.96460826 411.99625011 195.88251539 411.1652832 197.80029297 C408.91827733 202.9907908 406.68043023 208.18427548 404.49804688 213.40234375 C404.18464355 214.14315186 403.87124023 214.88395996 403.54833984 215.6472168 C402.77645078 217.47510829 402.0154893 219.30760497 401.25585938 221.140625 C398.3858973 226.70835143 394.8061951 230.7125502 389.18164062 233.51953125 C386.69335938 234.171875 386.69335938 234.171875 383.48632812 233.79296875 C379.11085133 233.33467735 376.75262586 233.37167856 372.69335938 235.171875 C367.98583068 241.03112687 365.3034766 248.33113911 362.41796875 255.20507812 C358.81064921 263.65795062 354.67868536 271.89257727 350.69335938 280.171875 C315.23361672 282.6888171 279.77000695 285.12877019 244.29818726 287.46958923 C238.06225373 287.88127163 231.82661805 288.29701137 225.59130859 288.71801758 C224.22959054 288.80970769 222.86787079 288.90137251 221.50614929 288.99301147 C218.92211957 289.16709577 216.33814176 289.34195304 213.75422668 289.51773071 C188.61275427 291.20866769 188.61275427 291.20866769 184.36914062 287.76171875 C174.34151801 278.05615117 176.93692897 254.61447572 176.60302734 241.66992188 C176.53082062 235.50218821 176.57903989 229.3387759 176.69335938 223.171875 C175.53578125 223.05070313 174.37820313 222.92953125 173.18554688 222.8046875 C168.94480322 222.27110862 164.91368252 221.25017449 160.81835938 220.046875 C159.23275901 219.59387039 157.64679862 219.14212467 156.06054688 218.69140625 C154.77615723 218.32523193 154.77615723 218.32523193 153.46582031 217.95166016 C148.30416784 216.49988858 143.12266548 215.12156671 137.94335938 213.734375 C129.85546804 211.56330986 121.77101466 209.38072449 113.69335938 207.171875 C98.81126144 203.10538093 83.91515337 199.09063807 69.00585938 195.125 C68.35460083 194.95169159 67.70334229 194.77838318 67.03234863 194.599823 C63.89562641 193.76520064 60.75863033 192.93165635 57.62109375 192.10009766 C51.17479942 190.38662758 44.74176283 188.6327954 38.31835938 186.8359375 C26.97381313 183.66724918 15.58209552 180.67697008 4.19335938 177.671875 C-7.9945563 174.45590397 -20.17845834 171.23526544 -32.31745911 167.83863831 C-38.19293962 166.19603861 -44.08629273 164.63161297 -49.99414062 163.109375 C-51.96946423 162.59659752 -53.94472478 162.08357706 -55.91992188 161.5703125 C-56.8501416 161.32893555 -57.78036133 161.08755859 -58.73876953 160.83886719 C-66.52751434 158.81577812 -74.30028607 156.74703045 -82.04101562 154.546875 C-95.39631924 150.75561193 -108.77105244 147.26043718 -122.30664062 144.171875 C-121.85725196 176.24961379 -121.85725196 176.24961379 -109.30664062 205.171875 C-126.36559667 201.76008379 -142.45303607 195.77314994 -153.34570312 181.5 C-162.21460644 168.14003501 -164.75273875 155.41415292 -164.43359375 139.61132812 C-164.51012149 134.11955182 -164.94977103 130.95775745 -168.73242188 126.83203125 C-169.35157471 126.26234619 -169.97072754 125.69266113 -170.60864258 125.10571289 C-175.6802987 119.32963983 -174.67633723 111.34439545 -174.30664062 104.171875 C-173.87743658 100.01807509 -173.23880352 95.91589633 -172.55664062 91.796875 C-172.18662483 89.4470582 -171.81956184 87.09677499 -171.45507812 84.74609375 C-171.26526367 83.52196777 -171.07544922 82.2978418 -170.87988281 81.03662109 C-169.67966294 72.94484914 -168.6988767 64.82258414 -167.70214844 56.70361328 C-165.88548519 42.18363712 -164.01486078 28.34638965 -152.63476562 17.921875 C-142.01340558 9.93803389 -130.60240578 8.0513376 -117.66992188 7.4609375 C-116.65643173 7.40802551 -115.64294159 7.35511353 -114.59873962 7.30059814 C-112.41277623 7.18659804 -110.22665653 7.07556343 -108.04040527 6.96722412 C-102.13988666 6.67342979 -96.24080395 6.35381544 -90.34179688 6.03125 C-89.1165329 5.96432953 -87.89126892 5.89740906 -86.62887573 5.82846069 C-70.62849399 4.9356819 -54.65076424 3.73107073 -38.67114258 2.52978516 C-25.78473296 1.56141548 -12.90532406 0.67080243 0 0 Z " fill="#4B3F53" transform="translate(375.306640625,493.828125)"/>
  <path d="M0 0 C0.72300293 0.19770996 1.44600586 0.39541992 2.19091797 0.59912109 C6.27313568 1.71418707 10.35503161 2.82888594 14.4453125 3.9140625 C15.32960938 4.14867187 16.21390625 4.38328125 17.125 4.625 C18.03507813 4.86476563 18.94515625 5.10453125 19.8828125 5.3515625 C22 6 22 6 23 7 C23.11400804 9.00991947 23.22128569 11.02050314 23.2902832 13.0324707 C23.67775259 27.24695111 23.67775259 27.24695111 31 39 C36.05526533 42.81724116 39.96456317 43.64291921 46.28515625 43.3828125 C51.88637555 42.59300028 56.08599377 40.31053014 59.875 36.125 C62.82789921 31.78250117 63.93423905 27.94871696 64.546875 22.8046875 C64.69640625 21.54914062 64.8459375 20.29359375 65 19 C74.12845038 20.89119516 83.11139966 22.89907451 91.98364258 25.79394531 C99.49194551 28.21568918 107.09062141 30.31514417 114.6875 32.4375 C116.0896028 32.8296598 117.49170242 33.22183099 118.89379883 33.61401367 C120.96704643 34.19375101 123.04033623 34.77333529 125.11375427 35.35246277 C131.18548669 37.04912785 137.25079192 38.76785135 143.3125 40.5 C144.16481201 40.74290771 145.01712402 40.98581543 145.89526367 41.23608398 C148.94911962 42.10956888 151.98627508 42.99542503 155 44 C155.18546194 53.30101099 155.32755472 62.60138462 155.41449738 71.90384197 C155.45622922 76.22358749 155.51281474 80.54206713 155.60351562 84.86108398 C155.69052252 89.03035189 155.73828922 93.19840356 155.75901794 97.36850929 C155.77378636 98.95828213 155.80262867 100.5479892 155.84584045 102.13724327 C156.17104555 114.59460898 156.17104555 114.59460898 153.29650879 118.04438782 C151.21810937 119.3705547 149.32602982 120.20373707 147 121 C145.75193901 121.63597403 144.51082096 122.28600632 143.28125 122.95703125 C142.0228967 123.57970814 140.76247279 124.1982183 139.5 124.8125 C138.260291 125.42292193 137.02071582 126.03361568 135.78125 126.64453125 C134.75453438 127.1487989 134.75453438 127.1487989 133.70707703 127.66325378 C130.47068377 129.26137471 127.24255674 130.87580719 124.01489258 132.49145508 C117.69147474 135.65493249 111.36628413 138.81483746 105.03979492 141.97216797 C96.25383924 146.3570961 87.46880807 150.74387198 78.6843977 155.13189507 C73.41049047 157.7662409 68.13620952 160.39983279 62.86108398 163.03173828 C57.6999529 165.60681054 52.53984534 168.1839236 47.38039589 170.76236343 C45.43990691 171.73169775 43.49907158 172.70033911 41.55785179 173.66820908 C31.10566332 178.88012391 20.70827723 184.17415436 10.38747501 189.6419878 C4.9860655 192.49830842 -0.45764558 195.22634069 -5.9921875 197.81640625 C-7.64000718 198.60729989 -9.28712562 199.39965594 -10.93359375 200.19335938 C-13.4268194 201.39346234 -15.92269597 202.58470801 -18.43115234 203.75268555 C-30.34916094 208.69057547 -30.34916094 208.69057547 -37.89404297 218.41552734 C-39.08242679 221.1926203 -40.67448801 223.4495347 -42.44204712 225.8873291 C-47.20912437 232.49755312 -50.1332469 238.73723465 -52.859375 246.43359375 C-57.75 257.4375 -57.75 257.4375 -76 277 C-104.38 277 -132.76 277 -162 277 C-162 209.35 -162 141.7 -162 72 C-125.7 72 -89.4 72 -52 72 C-46.66666667 85.33333333 -41.33333333 98.66666667 -36 112 C-30.23242349 110.75517521 -24.51302711 109.39655238 -18.8125 107.875 C-18.01626221 107.66399658 -17.22002441 107.45299316 -16.3996582 107.2355957 C-13.59918419 106.49259142 -10.79955556 105.74645728 -8 105 C-6.90397461 104.70818848 -5.80794922 104.41637695 -4.67871094 104.11572266 C-1.01482499 103.14020669 2.64887068 102.1639793 6.3125 101.1875 C7.57344482 100.85145752 8.83438965 100.51541504 10.13354492 100.16918945 C16.18749182 98.55494046 22.24034952 96.93684024 28.29008484 95.30686951 C31.03312043 94.56809349 33.77671176 93.831394 36.52035522 93.09487915 C38.45723519 92.5740006 40.39330049 92.05009575 42.3293457 91.52612305 C43.50972412 91.2094165 44.69010254 90.89270996 45.90625 90.56640625 C46.94072266 90.28740479 47.97519531 90.00840332 49.04101562 89.72094727 C51.99551051 89.00109385 55.00044939 88.4999251 58 88 C58 81.07 58 74.14 58 67 C53.545 67.99 53.545 67.99 49 69 C36.06038237 70.5370264 24.13513032 65.86057962 14 58 C6.55675314 51.45896488 2.32091238 41.44369144 0 32 C-0.15557575 29.44270269 -0.21589035 26.87834885 -0.1953125 24.31640625 C-0.1924826 23.61603745 -0.18965271 22.91566864 -0.18673706 22.19407654 C-0.17564885 19.9833683 -0.15056703 17.77308329 -0.125 15.5625 C-0.11495546 14.05274028 -0.1058322 12.54297412 -0.09765625 11.03320312 C-0.07574714 7.35533403 -0.04129758 3.6777084 0 0 Z " fill="#534B58" transform="translate(347,722)"/>
  <path d="M0 0 C1.60378761 0.01075562 1.60378761 0.01075562 3.23997498 0.02172852 C17.30454549 0.15666623 31.3633255 0.64083471 45.41973877 1.11462402 C49.11501476 1.23827281 52.81044351 1.35718093 56.50585938 1.4765625 C63.68244349 1.70906637 70.85884992 1.94655794 78.03515625 2.1875 C78.10366287 3.27813751 78.10366287 3.27813751 78.17355347 4.39080811 C78.61322717 11.38704702 79.05408488 18.38321023 79.49613762 25.37929916 C79.72313139 28.97239192 79.94973259 32.56550836 80.17529297 36.15869141 C80.4371972 40.3298339 80.70056703 44.50088218 80.96484375 48.671875 C81.03036029 49.70792625 81.03036029 49.70792625 81.09720039 50.76490784 C81.79527201 61.77549008 82.55770309 72.78040336 83.40463257 83.78070068 C86.09460043 119.8552703 86.09460043 119.8552703 78.36915588 134.27838135 C75.13054659 140.35743042 72.57954263 146.27832416 70.66372681 152.90202332 C67.20951756 164.73919303 63.03436287 178.23571021 53.03515625 186.1875 C39.69445769 192.60575106 22.35599678 190.75452824 7.97268677 190.37786865 C-1.4139967 190.13352825 -10.62328392 190.41861067 -19.9765625 191.11328125 C-20.96526525 191.18634334 -20.96526525 191.18634334 -21.9739418 191.26088142 C-25.26080194 191.50629979 -28.54688791 191.76063893 -31.83276367 192.01889038 C-37.85661345 192.48194135 -43.88509506 192.86821669 -49.9140625 193.2578125 C-52.21601165 193.40931581 -54.51793218 193.56125449 -56.81982422 193.71362305 C-57.97407898 193.78994965 -59.12833374 193.86627625 -60.31756592 193.94491577 C-64.23417411 194.20541344 -68.15055043 194.46921221 -72.06689453 194.73364258 C-73.42861258 194.82533269 -74.79033234 194.91699751 -76.15205383 195.00863647 C-78.73608355 195.18272077 -81.32006136 195.35757804 -83.90397644 195.53335571 C-109.04544885 197.22429269 -109.04544885 197.22429269 -113.2890625 193.77734375 C-120.58106374 186.71953817 -119.37001899 175.62535801 -120.02734375 166.0625 C-120.16366211 164.19851563 -120.16366211 164.19851563 -120.30273438 162.296875 C-121.04811951 151.55884559 -121.63865031 140.8580168 -119.96484375 130.1875 C-118.76988281 130.14882813 -118.76988281 130.14882813 -117.55078125 130.109375 C-109.02313666 129.68940947 -109.02313666 129.68940947 -101.96484375 125.1875 C-96.99280396 119.0088206 -93.96507301 112.13536637 -90.71484375 104.9375 C-90.13929484 103.67831424 -89.56286987 102.41952856 -88.9855957 101.16113281 C-87.83827404 98.65935682 -86.69369061 96.15636108 -85.55126953 93.65234375 C-80.35513379 82.30368901 -74.96933584 71.04807987 -69.3359375 59.91015625 C-67.69068677 56.65122364 -66.0745877 53.37883437 -64.47019958 50.09959412 C-63.24106514 47.58973163 -62.00519979 45.0832083 -60.76889038 42.57687378 C-60.15746447 41.33343557 -59.54884433 40.08861311 -58.94326782 38.84231567 C-51.71093544 23.9683683 -51.71093544 23.9683683 -46.96484375 19.1875 C-46.30484375 19.1875 -45.64484375 19.1875 -44.96484375 19.1875 C-44.96484375 18.5275 -44.96484375 17.8675 -44.96484375 17.1875 C-45.68929687 17.06632813 -46.41375 16.94515625 -47.16015625 16.8203125 C-52.24981948 15.93810421 -57.11367721 15.02307653 -61.96484375 13.1875 C-57.32061969 11.49464135 -53.49750566 13.25630207 -48.9375 14.59375 C-44.74705737 15.43073723 -42.28292482 15.02423406 -38.67578125 12.734375 C-37.90492188 12.14140625 -37.1340625 11.5484375 -36.33984375 10.9375 C-24.99093986 2.7251431 -13.83239791 -0.1816721 0 0 Z " fill="#5F5964" transform="translate(672.96484375,587.8125)"/>
  <path d="M0 0 C0.72300293 0.19770996 1.44600586 0.39541992 2.19091797 0.59912109 C6.27313568 1.71418707 10.35503161 2.82888594 14.4453125 3.9140625 C15.32960938 4.14867187 16.21390625 4.38328125 17.125 4.625 C18.03507813 4.86476563 18.94515625 5.10453125 19.8828125 5.3515625 C22 6 22 6 23 7 C23.11400804 9.00991947 23.22128569 11.02050314 23.2902832 13.0324707 C23.67775259 27.24695111 23.67775259 27.24695111 31 39 C36.05526533 42.81724116 39.96456317 43.64291921 46.28515625 43.3828125 C51.88637555 42.59300028 56.08599377 40.31053014 59.875 36.125 C62.82789921 31.78250117 63.93423905 27.94871696 64.546875 22.8046875 C64.69640625 21.54914062 64.8459375 20.29359375 65 19 C74.12845038 20.89119516 83.11139966 22.89907451 91.98364258 25.79394531 C99.49194551 28.21568918 107.09062141 30.31514417 114.6875 32.4375 C116.0896028 32.8296598 117.49170242 33.22183099 118.89379883 33.61401367 C120.96704643 34.19375101 123.04033623 34.77333529 125.11375427 35.35246277 C131.18548669 37.04912785 137.25079192 38.76785135 143.3125 40.5 C144.16481201 40.74290771 145.01712402 40.98581543 145.89526367 41.23608398 C148.94911962 42.10956888 151.98627508 42.99542503 155 44 C155 67.76 155 91.52 155 116 C151.39931473 116.90017132 148.90691403 117.08911149 145.2512207 117.01489258 C144.0909285 116.9961055 142.93063629 116.97731842 141.73518372 116.95796204 C140.4780809 116.93702988 139.22097809 116.91609772 137.92578125 116.89453125 C134.52229421 116.87459892 131.11891424 116.86100867 127.71539021 116.85153675 C124.1942178 116.83828001 120.67580295 116.80466808 117.15551758 116.72241211 C98.01659989 116.29723194 83.46083707 118.79009303 66.52481079 128.56533813 C63.23015384 130.43744621 59.87266576 132.00241298 56.41796875 133.55859375 C54.85997559 134.28006592 54.85997559 134.28006592 53.27050781 135.01611328 C52.25311523 135.4851709 51.23572266 135.95422852 50.1875 136.4375 C47.83199927 137.52727463 45.47653151 138.61712053 43.12109375 139.70703125 C41.94788574 140.24924316 40.77467773 140.79145508 39.56591797 141.35009766 C35.99125007 143.00404847 32.41903133 144.66317078 28.84765625 146.32421875 C18.68578459 151.0501197 8.52189463 155.76912077 -1.67773438 160.41308594 C-9.72035526 164.07649208 -17.70770181 167.79382274 -25.58081055 171.80859375 C-32.76234715 175.440677 -40.07984131 178.78255734 -47.38616943 182.15402222 C-55.74954523 186.0133638 -64.07881928 189.93555208 -72.375 193.9375 C-79.39567854 197.32180871 -86.43884039 200.5205771 -93.6328125 203.51953125 C-98.49110285 205.6556009 -103.21312276 208.04559312 -107.93725586 210.46166992 C-112.90910835 213 -112.90910835 213 -114 213 C-114.02328301 204.32388346 -114.04099581 195.64777786 -114.05181217 186.97163677 C-114.05700634 182.94193599 -114.0640402 178.91225675 -114.07543945 174.88256836 C-114.08639257 170.98571883 -114.09230287 167.08888989 -114.09487724 163.19202614 C-114.09670929 161.71346526 -114.10028625 160.23490537 -114.10573006 158.75635338 C-114.13505186 150.45398255 -113.96320761 142.25589947 -113 134 C-111.92218262 133.71801758 -110.84436523 133.43603516 -109.73388672 133.14550781 C-105.66674194 132.08099962 -101.60014312 131.01441799 -97.53369141 129.94726562 C-95.78643975 129.48903323 -94.03904796 129.03133479 -92.29150391 128.57421875 C-81.82386965 125.83569825 -71.38862633 123.02656936 -61 120 C-58.13439224 119.17090953 -55.26850498 118.34279996 -52.40234375 117.515625 C-50.58668057 116.99151604 -48.77160297 116.46537541 -46.95703125 115.9375 C-46.07917969 115.68484375 -45.20132813 115.4321875 -44.296875 115.171875 C-43.51666992 114.9459668 -42.73646484 114.72005859 -41.93261719 114.48730469 C-40 114 -40 114 -38 114 C-37.505 112.515 -37.505 112.515 -37 111 C-36.42830078 111.18643066 -35.85660156 111.37286133 -35.26757812 111.56494141 C-32.64845574 112.06744744 -31.25336768 111.73974624 -28.71875 110.9609375 C-27.88730469 110.71279297 -27.05585938 110.46464844 -26.19921875 110.20898438 C-25.30847656 109.93376953 -24.41773438 109.65855469 -23.5 109.375 C-21.59459093 108.80706687 -19.68831716 108.24202782 -17.78125 107.6796875 C-16.81445312 107.39448242 -15.84765625 107.10927734 -14.8515625 106.81542969 C-10.59430523 105.59802906 -6.30287509 104.54232736 -2 103.5 C4.81793579 101.83556832 11.57273316 100.01945095 18.3125 98.0625 C25.99488854 95.8340928 33.69931679 93.71415239 41.4375 91.6875 C42.40276611 91.43299072 43.36803223 91.17848145 44.36254883 90.91625977 C45.27286865 90.67963623 46.18318848 90.4430127 47.12109375 90.19921875 C47.9195874 89.99127686 48.71808105 89.78333496 49.54077148 89.5690918 C52.33477707 88.922529 55.17117929 88.47147012 58 88 C58 81.07 58 74.14 58 67 C53.545 67.99 53.545 67.99 49 69 C36.06038237 70.5370264 24.13513032 65.86057962 14 58 C6.55675314 51.45896488 2.32091238 41.44369144 0 32 C-0.15557575 29.44270269 -0.21589035 26.87834885 -0.1953125 24.31640625 C-0.1924826 23.61603745 -0.18965271 22.91566864 -0.18673706 22.19407654 C-0.17564885 19.9833683 -0.15056703 17.77308329 -0.125 15.5625 C-0.11495546 14.05274028 -0.1058322 12.54297412 -0.09765625 11.03320312 C-0.07574714 7.35533403 -0.04129758 3.6777084 0 0 Z " fill="#4B4053" transform="translate(347,722)"/>
  <path d="M0 0 C5.31961035 0.59631592 10.47908448 1.43586036 15.6875 2.6875 C16.77599243 2.94587646 16.77599243 2.94587646 17.88647461 3.20947266 C24.55119617 4.8261451 31.1257253 6.72575973 37.70776367 8.6472168 C44.43476429 10.59500223 51.19832482 12.33341496 58 14 C66.38341583 16.05699222 74.69110206 18.28607884 82.977005 20.70481873 C89.18008937 22.50613589 95.40894339 24.17502579 101.6640625 25.78515625 C112.71810416 28.65039796 123.74407806 31.61269091 134.76333618 34.60858154 C137.90400524 35.4623758 141.04508673 36.31463783 144.1862793 37.16650391 C148.30658518 38.28394744 152.42679673 39.40173707 156.546875 40.52001953 C172.76225692 44.92104837 188.98717126 49.26466212 205.26000977 53.44897461 C212.78530495 55.39533148 220.25797301 57.48031977 227.71899414 59.65820312 C235.68659819 61.96003976 243.71494246 64.01265024 251.75 66.0625 C261.32485277 68.50542946 270.84958055 71.04038591 280.30859375 73.90234375 C286.50100395 75.74368477 292.74870811 77.37120633 299 79 C299.04898437 80.25167969 299.09796875 81.50335937 299.1484375 82.79296875 C299.6084272 93.97466739 300.21049584 105.14494791 300.9375 116.3125 C301.01210449 117.53283936 301.08670898 118.75317871 301.16357422 120.01049805 C301.85960244 132.659079 301.85960244 132.659079 307 144 C299.60128617 142.650517 292.41544619 140.81755647 285.1875 138.75 C284.0936499 138.440625 282.9997998 138.13125 281.87280273 137.8125 C276.78420437 136.37116734 271.69987805 134.91513813 266.6171875 133.453125 C264.93233152 132.96861138 263.247436 132.48423525 261.5625 132 C260.70736816 131.75419189 259.85223633 131.50838379 258.97119141 131.25512695 C252.52013525 129.41068356 246.04614228 127.66339149 239.5625 125.9375 C226.75559285 122.52345844 214.00279078 118.92247464 201.25 115.3125 C199.75558884 114.88951126 199.75558884 114.88951126 198.23098755 114.45797729 C192.63234488 112.8726072 187.03466313 111.28388782 181.43774414 109.69244385 C179.19529947 109.05547502 176.95225681 108.42066726 174.70898438 107.78662109 C173.47986328 107.43809082 172.25074219 107.08956055 170.984375 106.73046875 C169.95538086 106.43938232 168.92638672 106.1482959 167.86621094 105.84838867 C164.88593753 104.9662379 161.94280634 103.99944883 159 103 C159.061875 104.155 159.12375 105.31 159.1875 106.5 C159.13745065 112.17559659 158.07884436 116.70967147 154.1953125 120.98828125 C148.15206308 126.49561987 143.06831637 128.60048101 134.85546875 128.4453125 C128.65436982 127.47824646 124.46695454 123.76786829 120.5625 119.0625 C117.29077132 112.64991178 116.64902393 106.64716037 116.375 99.5625 C116.33632813 98.73556641 116.29765625 97.90863281 116.2578125 97.05664062 C116.16446908 95.03808927 116.08119039 93.01907669 116 91 C101.70692832 86.88555336 87.4050161 82.81398012 73.0625 78.875 C63.10194793 76.13812726 53.14918939 73.38129147 43.23046875 70.49609375 C39.3506194 69.37157594 35.45576042 68.31891199 31.55078125 67.28515625 C29.36717364 66.69015505 27.18357964 66.09510384 25 65.5 C23.46702271 65.10929321 23.46702271 65.10929321 21.90307617 64.71069336 C15.67035009 62.98360292 12.54650931 61.47318438 9 56 C8.59652344 55.40316406 8.19304687 54.80632813 7.77734375 54.19140625 C0.89626437 40.84531276 -0.17784562 26.15737504 -0.0625 11.4375 C-0.05798828 10.33341797 -0.05347656 9.22933594 -0.04882812 8.09179688 C-0.0371514 5.394473 -0.02077525 2.69726653 0 0 Z " fill="#C4DADA" transform="translate(253,638)"/>
  <path d="M0 0 C11.45523256 8.70446947 18.43325281 21.75017339 20.93359375 35.79296875 C22.8899422 51.46384207 21.46003658 65.89603873 16.375 80.8046875 C16.00246094 81.91199219 15.62992188 83.01929688 15.24609375 84.16015625 C8.70728594 101.40711621 -3.86925975 118.12281886 -20.640625 126.26953125 C-23.60658373 127.55502844 -26.58211616 128.71520741 -29.625 129.8046875 C-30.62080078 130.1759375 -30.62080078 130.1759375 -31.63671875 130.5546875 C-41.3224299 133.5801591 -53.4138598 133.02833227 -62.625 128.8046875 C-77.14842469 121.16928481 -83.98883934 109.87954982 -89.625 94.8046875 C-95.24606431 72.43338308 -92.27391977 48.11954103 -81.06640625 28.0078125 C-72.04149299 13.2511414 -60.83474861 1.50401634 -44.625 -5.1953125 C-43.86058594 -5.51371094 -43.09617187 -5.83210937 -42.30859375 -6.16015625 C-27.81597065 -11.34120932 -12.66706406 -8.16051243 0 0 Z " fill="#02A1D2" transform="translate(712.625,624.1953125)"/>
  <path d="M0 0 C8.91 0 17.82 0 27 0 C33.50588692 17.94365586 39.85393322 35.93011449 46 54 C46.34362579 54.88925674 46.68725159 55.77851349 47.04129028 56.69471741 C48.13284393 60.45799757 48.32024852 63.94829905 48.34155273 67.83105469 C48.35868317 68.97405785 48.35868317 68.97405785 48.37615967 70.14015198 C48.40865167 72.65081014 48.42390566 75.16102878 48.43359375 77.671875 C48.43695299 78.53754341 48.44031223 79.40321182 48.44377327 80.29511261 C48.456525 84.88711375 48.45224015 89.4788112 48.43774414 94.07080078 C48.42949058 97.83661062 48.45723827 101.59942593 48.51782227 105.36474609 C49.09513122 142.76306036 49.09513122 142.76306036 39.05125427 153.97650146 C37.93833846 155.10765951 36.80647224 156.22055888 35.65438843 157.3117981 C32.74126464 160.28446222 30.57862939 163.77614714 28.3125 167.25 C27.41686455 168.56701407 26.51879447 169.88237922 25.6171875 171.1953125 C25.18245117 171.82985352 24.74771484 172.46439453 24.29980469 173.11816406 C21.4185538 177.2895919 18.457733 181.40392343 15.4921875 185.515625 C13.71515535 187.98396083 11.97809998 190.47617886 10.2578125 192.984375 C9.58117554 193.96059814 9.58117554 193.96059814 8.89086914 194.95654297 C8.02264137 196.21045472 7.16208768 197.46972433 6.31030273 198.73486328 C5.28117026 200.21125048 4.14797548 201.61400392 3 203 C2.01 203 1.02 203 0 203 C0 136.01 0 69.02 0 0 Z " fill="#605964" transform="translate(186,795)"/>
  <path d="M0 0 C7.85294489 3.68012526 12.48510898 9.13197836 16 17 C18.428156 29.45462327 12.98620984 39.94590616 8 51 C7.01003109 53.22508891 6.02046778 55.45035831 5.03125 57.67578125 C3.41013836 61.30910927 1.78482241 64.94039357 0.14526367 68.56542969 C-3.65615338 76.97041215 -7.37903772 85.40588974 -11.0375061 93.87408447 C-11.86645976 95.79273326 -12.69710926 97.71064039 -13.52807617 99.62841797 C-15.77508205 104.8189158 -18.01292914 110.01240048 -20.1953125 115.23046875 C-20.50871582 115.97127686 -20.82211914 116.71208496 -21.14501953 117.4753418 C-21.9169086 119.30323329 -22.67787008 121.13572997 -23.4375 122.96875 C-26.25809551 128.4407053 -29.82553315 132.69080736 -35.46484375 135.3203125 C-40.84425857 136.76255931 -46.48296441 136.27895124 -52 136 C-51.59007812 135.17757812 -51.18015625 134.35515625 -50.7578125 133.5078125 C-49.94957031 131.83332031 -49.94957031 131.83332031 -49.125 130.125 C-48.59132813 129.03445313 -48.05765625 127.94390625 -47.5078125 126.8203125 C-44.22294651 119.19331718 -43.65288161 111.06340695 -43.71875 102.85546875 C-43.72314087 101.84783981 -43.72753174 100.84021088 -43.73205566 99.80204773 C-43.93089782 83.82993392 -45.21650353 67.88148507 -46.31781006 51.95196533 C-46.80055206 44.95827097 -47.27279918 37.96388491 -47.73908997 30.96907616 C-47.90126356 28.56228416 -48.06913631 26.15594171 -48.2376709 23.74958801 C-48.82554479 15.15193235 -49.14877512 6.62393852 -49 -2 C-47.56914063 -2.04163269 -47.56914063 -2.04163269 -46.109375 -2.08410645 C-42.97935739 -2.17615914 -39.84952117 -2.2729852 -36.71972656 -2.37231445 C-35.3268741 -2.41565846 -33.93396869 -2.45733396 -32.54101562 -2.49731445 C-30.54023349 -2.55502932 -28.53964141 -2.61921869 -26.5390625 -2.68359375 C-25.33459473 -2.72025146 -24.13012695 -2.75690918 -22.88916016 -2.79467773 C-14.80648881 -3.36908424 -8.08894763 -2.53228846 0 0 Z " fill="#534B58" transform="translate(800,592)"/>
  <path d="M0 0 C1.010625 0.5775 2.02125 1.155 3.0625 1.75 C4.0525 2.245 5.0425 2.74 6.0625 3.25 C12.36496521 8.50205434 16.35454233 15.77139773 18.0625 23.75 C19.90859839 44.78263222 16.25471687 64.6398696 2.625 81.3125 C-5.37988737 89.68124589 -15.21018583 93.96417144 -26.625 95.125 C-32.75487731 95.02071097 -38.06101525 92.10633609 -42.73046875 88.28125 C-51.50264971 79.08060776 -53.44666353 66.30350328 -53.20703125 54.13671875 C-52.4403437 37.04676234 -44.86941612 20.26456231 -32.7578125 8.25390625 C-23.80386946 0.30449145 -11.92062601 -4.92897794 0 0 Z " fill="#D5E7E7" transform="translate(694.9375,640.25)"/>
  <path d="M0 0 C0.72300293 0.19770996 1.44600586 0.39541992 2.19091797 0.59912109 C6.27313568 1.71418707 10.35503161 2.82888594 14.4453125 3.9140625 C15.32960938 4.14867187 16.21390625 4.38328125 17.125 4.625 C18.03507812 4.86476563 18.94515625 5.10453125 19.8828125 5.3515625 C22 6 22 6 23 7 C23.11400804 9.00991947 23.22128569 11.02050314 23.2902832 13.0324707 C23.67775259 27.24695111 23.67775259 27.24695111 31 39 C36.05526533 42.81724116 39.96456317 43.64291921 46.28515625 43.3828125 C51.88637555 42.59300028 56.08599377 40.31053014 59.875 36.125 C62.82789921 31.78250117 63.93423905 27.94871696 64.546875 22.8046875 C64.69640625 21.54914062 64.8459375 20.29359375 65 19 C74.35902498 20.93896467 83.54770594 23.02569799 92.640625 25.99169922 C101.98892196 29.01737569 111.50924727 31.46589553 121 34 C120.01 34.495 120.01 34.495 119 35 C119 46.88 119 58.76 119 71 C98.97141038 71.83452457 79.04141506 72.11712515 59 72 C59 77.61 59 83.22 59 89 C57.68 88.67 56.36 88.34 55 88 C55.99 88 56.98 88 58 88 C58 81.07 58 74.14 58 67 C53.545 67.99 53.545 67.99 49 69 C36.06038237 70.5370264 24.13513032 65.86057962 14 58 C6.55675314 51.45896488 2.32091238 41.44369144 0 32 C-0.15557575 29.44270269 -0.21589035 26.87834885 -0.1953125 24.31640625 C-0.1924826 23.61603745 -0.18965271 22.91566864 -0.18673706 22.19407654 C-0.17564885 19.9833683 -0.15056703 17.77308329 -0.125 15.5625 C-0.11495546 14.05274028 -0.1058322 12.54297412 -0.09765625 11.03320312 C-0.07574714 7.35533403 -0.04129758 3.6777084 0 0 Z " fill="#4C4154" transform="translate(347,722)"/>
  <path d="M0 0 C0.53923096 0.29036133 1.07846191 0.58072266 1.6340332 0.87988281 C10.87262476 5.25369955 21.37835548 7.12086678 31.3125 9.25 C32.54162109 9.518125 33.77074219 9.78625 35.03710938 10.0625 C38.023705 10.7132757 41.01128669 11.35903387 44 12 C43.34 12.33 42.68 12.66 42 13 C42.44938866 45.07773879 42.44938866 45.07773879 55 74 C37.94104395 70.58820879 21.85360456 64.60127494 10.9609375 50.328125 C2.66931952 37.83777281 -0.36856747 25.78574791 -0.125 10.9375 C-0.11597656 9.88111328 -0.10695312 8.82472656 -0.09765625 7.73632812 C-0.0743167 5.15730747 -0.04157775 2.5787801 0 0 Z " fill="#5A535E" transform="translate(211,625)"/>
  <path d="M0 0 C0.70382812 0.18208008 1.40765625 0.36416016 2.1328125 0.55175781 C4.36152793 1.13078682 6.5871888 1.72053339 8.8125 2.3125 C10.27733866 2.69923802 11.7421823 3.08595719 13.20703125 3.47265625 C16.7447404 4.40984972 20.27937623 5.35815048 23.8125 6.3125 C23.1525 6.6425 22.4925 6.9725 21.8125 7.3125 C21.8125 19.1925 21.8125 31.0725 21.8125 43.3125 C1.78391038 44.14702457 -18.14608494 44.42962515 -38.1875 44.3125 C-38.1875 49.9225 -38.1875 55.5325 -38.1875 61.3125 C-39.5075 60.9825 -40.8275 60.6525 -42.1875 60.3125 C-41.1975 60.3125 -40.2075 60.3125 -39.1875 60.3125 C-39.1875 53.3825 -39.1875 46.4525 -39.1875 39.3125 C-39.8475 38.9825 -40.5075 38.6525 -41.1875 38.3125 C-40.57003906 38.10496094 -39.95257813 37.89742187 -39.31640625 37.68359375 C-28.26687288 33.66405269 -19.96175529 27.08117547 -14.78125 16.41796875 C-12.82203066 11.89012173 -11.11408158 7.43541425 -10 2.625 C-9.731875 1.531875 -9.46375 0.43875 -9.1875 -0.6875 C-6.06205022 -2.25022489 -3.2287234 -0.86169963 0 0 Z " fill="#5F5863" transform="translate(444.1875,749.6875)"/>
  <path d="M0 0 C7.46679003 1.58699044 14.82023783 3.50478679 22.1875 5.5 C23.33669922 5.80808594 24.48589844 6.11617187 25.66992188 6.43359375 C30.83432909 7.82711648 35.93565309 9.27220275 41 11 C41.38275518 17.12408291 41.28431027 22.64940181 38 28 C33.5676848 32.87362797 29.04880955 36.36200577 22.421875 37.40625 C15.0356884 37.66541444 10.46772337 36.01302704 5 31 C1.24694521 26.66475388 -0.13052878 22.58147977 -0.09765625 16.89453125 C-0.09443359 15.91162109 -0.09121094 14.92871094 -0.08789062 13.91601562 C-0.07951172 12.89185547 -0.07113281 11.86769531 -0.0625 10.8125 C-0.05798828 9.77673828 -0.05347656 8.74097656 -0.04882812 7.67382812 C-0.0370401 5.11582734 -0.02058515 2.55794267 0 0 Z " fill="#FAFBFC" transform="translate(371,729)"/>
  <path d="M0 0 C2.45620699 2.01759859 3.84569022 3.73516577 4.23828125 6.953125 C4.41774475 12.50704803 3.73664814 15.60394337 0 20 C-3.0832635 21.54163175 -5.60878099 21.29747535 -9 21 C-11.94435757 18.06924224 -12.45423941 15.70913262 -12.5 11.625 C-12.40734834 7.77480896 -12.0902073 5.37992724 -9.625 2.375 C-5.96236343 -0.93881404 -4.71014686 -1.37857957 0 0 Z " fill="#06A0D1" transform="translate(681,681)"/>
  <path d="M0 0 C4.29 0 8.58 0 13 0 C12.67 0.99 12.34 1.98 12 3 C7.97007218 2.44687265 3.97977076 1.8441938 0 1 C0 0.67 0 0.34 0 0 Z " fill="#3D3246" transform="translate(244,503)"/>
  <path d="M0 0 C0.66 0.99 1.32 1.98 2 3 C1.125 6.1875 1.125 6.1875 0 9 C-0.66 8.67 -1.32 8.34 -2 8 C-1.34 5.36 -0.68 2.72 0 0 Z " fill="#C6E2E5" transform="translate(647,671)"/>
</svg>
