<?xml version="1.0" encoding="UTF-8"?>
<svg xmlns="http://www.w3.org/2000/svg" version="1.1" width="100%" height="100%" viewBox="0 0 1024 1536">

<path d="M0 0 C0.82946462 -0.00551949 1.65892924 -0.01103897 2.51352915 -0.01672572 C3.42134275 -0.01261508 4.32915635 -0.00850444 5.26447946 -0.00426924 C6.23552496 -0.00777532 7.20657047 -0.01128139 8.20704159 -0.01489371 C11.48634141 -0.0242554 14.76546549 -0.0192721 18.04477292 -0.01442587 C20.4094478 -0.01815974 22.77412144 -0.0227602 25.13879311 -0.02815652 C30.29328498 -0.03786606 35.44774236 -0.04129708 40.60224134 -0.03924429 C48.26730201 -0.0361991 55.93232098 -0.04450763 63.59737356 -0.05499355 C78.0833574 -0.07435632 92.56932711 -0.07996264 107.05532237 -0.08110766 C118.24174784 -0.0820261 129.42816775 -0.08613941 140.61459142 -0.09250891 C143.83249242 -0.09430396 147.05039344 -0.09608358 150.26829445 -0.09785867 C151.06823855 -0.09830076 151.86818265 -0.09874286 152.69236748 -0.09919835 C175.2003088 -0.11151061 197.70824819 -0.1193991 220.21619302 -0.1185118 C221.48964916 -0.11846506 221.48964916 -0.11846506 222.78883168 -0.11841738 C227.091936 -0.11825116 231.39504032 -0.11805308 235.69814464 -0.11784796 C236.98010049 -0.11778813 236.98010049 -0.11778813 238.28795443 -0.11772708 C240.01624073 -0.11764621 241.74452703 -0.11756261 243.47281332 -0.1174763 C270.36008748 -0.11625088 297.24731118 -0.13126068 324.1345709 -0.15862143 C354.33106139 -0.18933691 384.52751874 -0.20655421 414.72402585 -0.20469499 C417.94349863 -0.20454572 421.16297141 -0.20444831 424.3824442 -0.20438635 C425.57154755 -0.20435139 425.57154755 -0.20435139 426.78467319 -0.20431572 C439.54744406 -0.20425415 452.31017117 -0.21703149 465.07292902 -0.23425088 C477.89899163 -0.25119781 490.72499017 -0.25318863 503.55105778 -0.24003224 C511.17220176 -0.23263647 518.79315121 -0.23631958 526.41427462 -0.25591692 C532.10331399 -0.2693106 537.79217252 -0.26182288 543.48119906 -0.24617048 C545.78405202 -0.24308674 548.08692596 -0.24678428 550.3897542 -0.25789063 C553.51765922 -0.2719789 556.64455867 -0.26145035 559.77242929 -0.24477828 C560.66853706 -0.25471464 561.56464483 -0.26465099 562.48790738 -0.27488846 C569.30784606 -0.19792663 575.59420593 1.25156316 580.72149227 6.00300834 C585.19527896 10.87657816 587.08016863 15.37433948 587.09311944 22.0408901 C587.10018503 23.20464908 587.10725062 24.36840806 587.11453032 25.56743246 C587.11211524 26.84173284 587.10970016 28.11603322 587.10721189 29.42894876 C587.11166511 30.7996986 587.11697943 32.17044587 587.12308061 33.54118937 C587.13726122 37.30733043 587.13892389 41.07338895 587.1384837 44.83955288 C587.14013187 48.90174293 587.15319845 52.96389899 587.16467649 57.02607095 C587.18752623 65.90839395 587.19544715 74.79069306 587.20050293 83.67304146 C587.20376015 89.22023424 587.21028281 94.76742008 587.21750432 100.31460893 C587.23707066 115.67605717 587.25347452 131.03749897 587.25638086 146.39896047 C587.25656843 147.38198379 587.256756 148.36500711 587.25694925 149.37781902 C587.2573155 151.37061524 587.2576792 153.36341147 587.25804036 155.35620769 C587.25822317 156.34542297 587.25840598 157.33463824 587.25859433 158.35382974 C587.25886516 159.8394659 587.25886516 159.8394659 587.25914145 161.35511491 C587.26268261 177.40125358 587.2897012 193.447258 587.32709222 209.49335011 C587.36518221 225.97140471 587.38453839 242.44939272 587.38484037 258.92749232 C587.3854248 268.17782303 587.39390772 277.42799362 587.42283803 286.6782831 C587.44736123 294.5556164 587.45462853 302.43273119 587.43959051 310.31009235 C587.43242525 314.32762952 587.433262 318.34473529 587.4560011 322.36222398 C587.47664292 326.04452902 587.47394323 329.72607245 587.45312626 333.4083697 C587.4479978 335.36222384 587.4673711 337.31609564 587.48778796 339.26984984 C587.41519888 346.90461751 586.36700864 352.95187314 581.83305722 359.25299966 C577.1500552 363.62608392 573.04520565 366.37927475 566.4971016 366.37604749 C565.60634598 366.37803854 564.71559036 366.38002959 563.79784214 366.38208097 C562.8182798 366.37916813 561.83871746 366.37625529 560.82947141 366.37325418 C559.26979305 366.37453582 559.26979305 366.37453582 557.67860603 366.37584335 C554.17774503 366.37749676 550.67693143 366.371979 547.1760748 366.36652505 C544.67320108 366.36624313 542.17032727 366.36640102 539.66745359 366.36696756 C534.27033035 366.36719563 528.87322201 366.3643504 523.47610265 366.35872972 C515.67274112 366.35060841 507.86938545 366.34799885 500.06602015 366.34674173 C487.40608714 366.34455221 474.74616057 366.33789481 462.08623105 366.32843912 C449.78707774 366.31926243 437.48792616 366.31218285 425.18877012 366.3079313 C424.43086141 366.30766858 423.6729527 366.30740586 422.89207707 366.30713517 C419.08993488 366.30583015 415.28779268 366.30456644 411.48565048 366.30332327 C379.93478036 366.29295375 348.3839222 366.27451711 316.83305722 366.25299966 C316.83305722 385.06299966 316.83305722 403.87299966 316.83305722 423.25299966 C328.40271543 423.22157876 328.40271543 423.22157876 340.2061041 423.1895231 C364.8917816 423.12530835 389.57745685 423.08082346 414.26319578 423.04873835 C418.0983321 423.04373558 421.93346816 423.03855829 425.7686041 423.0332731 C426.91385245 423.03169924 426.91385245 423.03169924 428.08223712 423.03009358 C440.44087075 423.01269356 452.79942986 422.9811581 465.1580193 422.94438848 C477.84131247 422.90696782 490.52456664 422.88476144 503.20791274 422.87664568 C511.0327531 422.87116023 518.85738284 422.85384187 526.68215835 422.8213338 C532.68462389 422.79766848 538.68690868 422.79518265 544.68942624 422.80056894 C547.15006667 422.79946831 549.61071505 422.79150923 552.07130796 422.77617776 C555.43192193 422.75626515 558.79163612 422.76106602 562.15227109 422.7719816 C563.12505112 422.76033023 564.09783116 422.74867887 565.10008937 422.73667443 C571.78921165 422.79536648 577.45944349 423.96906071 582.39265376 428.77114022 C585.86761263 432.82350719 586.95676727 435.17665081 586.98022825 440.41294229 C586.9909612 442.05310564 586.9909612 442.05310564 587.00191098 443.72640359 C587.00594434 445.53418535 587.00594434 445.53418535 587.01005918 447.37848794 C587.01991597 449.27622713 587.01991597 449.27622713 587.0299719 451.21230447 C587.05102527 455.41596077 587.0613785 459.61961748 587.07133847 463.82331216 C587.07538618 465.27123793 587.0795031 466.7191635 587.08368856 468.16708887 C587.10274655 474.97264291 587.11697378 481.77818609 587.12530053 488.58376169 C587.13506225 496.43231949 587.16135105 504.28059445 587.20180142 512.12905264 C587.23200718 518.19880923 587.24677379 524.26848498 587.25008154 530.33831525 C587.25242786 533.9615457 587.26133248 537.58447422 587.28654271 541.20762384 C587.3142526 545.25564338 587.30997875 549.30303571 587.30302793 553.35114419 C587.31583799 554.54418664 587.32864805 555.73722909 587.34184629 556.96642435 C587.29865173 563.87351339 586.56595741 568.38730059 582.83305722 574.25299966 C580.33305722 576.62799966 580.33305722 576.62799966 577.83305722 578.25299966 C577.28133847 578.61393716 576.72961972 578.97487466 576.16118222 579.34674966 C572.83085431 580.64311892 569.59821951 580.46438361 566.08305722 580.37799966 C565.38567441 580.36897623 564.6882916 580.35995279 563.96977597 580.35065591 C562.25738765 580.32719854 560.54517719 580.29133071 558.83305722 580.25299966 C558.85400449 580.82743814 558.87495176 581.40187662 558.89653379 581.99372232 C558.98019487 584.6216334 559.03187182 587.24926356 559.08305722 589.87799966 C559.11657285 590.78163248 559.15008847 591.68526529 559.18461972 592.61628091 C559.26790737 598.32148454 558.89417128 601.88259547 554.83305722 606.25299966 C549.75164556 609.4674175 545.63649383 609.68108657 539.82149965 609.63610971 C538.92014733 609.64106923 538.01879501 609.64602874 537.09012899 609.65113854 C534.05988374 609.66412579 531.03007686 609.65569995 527.99982053 609.64740884 C525.80935887 609.65229625 523.61889978 609.65848535 521.4284451 609.66586673 C515.40124122 609.68230826 509.37416778 609.67993974 503.34694928 609.67449176 C496.8499112 609.67182678 490.35290831 609.6863433 483.85588437 609.69858682 C471.12477515 609.72030662 458.39370601 609.72419912 445.66258097 609.72239894 C435.31762107 609.72102638 424.97267499 609.72484097 414.62771779 609.732324 C413.14197757 609.73337433 411.65623735 609.73442195 410.17049713 609.73546687 C409.43299442 609.73598621 408.69549171 609.73650556 407.93564043 609.73704064 C407.1967965 609.73756078 406.45795256 609.73808092 405.69671941 609.73861682 C404.95664862 609.73914082 404.21657783 609.73966481 403.45408066 609.74020468 C382.63656898 609.75478975 361.8190624 609.76306964 341.00154573 609.75845468 C340.21661955 609.75828273 339.43169338 609.75811077 338.62298157 609.75793361 C334.64457459 609.7570447 330.66616762 609.75609989 326.68776066 609.7551356 C325.89762212 609.75494456 325.10748357 609.75475353 324.29340144 609.75455671 C322.69554945 609.75416962 321.09769747 609.75377929 319.49984549 609.75338573 C294.63293209 609.74741467 269.76611174 609.76285796 244.89921933 609.79499185 C216.96751943 609.8310555 189.03587853 609.85040337 161.10415387 609.84545314 C158.12684006 609.84498316 155.14952625 609.84457291 152.17221242 609.84420145 C151.07255951 609.84404787 151.07255951 609.84404787 149.95069139 609.84389118 C138.87670434 609.84269561 127.80278097 609.85467317 116.72881109 609.87334573 C104.1372712 609.89456677 91.54587463 609.89798765 78.95432854 609.87904614 C72.52715327 609.86986577 66.10024457 609.86881597 59.6730898 609.88940179 C53.79276726 609.90802827 47.91293118 609.90370171 42.03262763 609.88085598 C39.90214404 609.87664917 37.77162375 609.8809395 35.64117885 609.89445192 C32.75034543 609.91154254 29.86122387 609.8979696 26.97045594 609.87661874 C26.1386527 609.88889627 25.30684945 609.90117379 24.44984004 609.91382337 C18.65878245 609.82415609 15.04047207 608.27070649 10.83305722 604.25299966 C7.2154046 599.18975359 7.47004538 594.35440285 7.64555722 588.37799966 C7.66585996 587.05928873 7.66585996 587.05928873 7.68657285 585.71393716 C7.721691 583.56002415 7.77549029 581.40642963 7.83305722 579.25299966 C6.90364316 579.29940591 5.9742291 579.34581216 5.01665097 579.39362466 C-7.59037622 579.76171305 -7.59037622 579.76171305 -13.16694278 575.25299966 C-17.59863585 570.79804311 -19.28414153 567.24887047 -19.32084292 560.97280252 C-19.32944339 559.87798563 -19.33804385 558.78316873 -19.34690493 557.65517557 C-19.35116488 556.45358301 -19.35542483 555.25199045 -19.35981387 554.01398599 C-19.3720801 552.11602777 -19.3720801 552.11602777 -19.38459414 550.17972696 C-19.41078776 545.98151654 -19.42612097 541.7832963 -19.44038028 537.58503091 C-19.4457414 536.13803162 -19.45111891 534.69103239 -19.45651263 533.24403322 C-19.47813912 527.22278619 -19.49687396 521.20154181 -19.50813502 515.18026578 C-19.52436226 506.56116926 -19.55751228 497.94252437 -19.61453587 489.32359809 C-19.65329238 483.25806999 -19.67277453 477.19266238 -19.67805558 471.12701374 C-19.68170183 467.50707375 -19.69364409 463.88761575 -19.72615832 460.26781023 C-19.76195506 456.22459775 -19.75785372 452.18235025 -19.75043887 448.13898599 C-19.7668442 446.94751459 -19.78324954 445.75604318 -19.800152 444.52846658 C-19.75478187 438.48028765 -19.25643947 434.05821036 -15.92377299 428.94060171 C-9.90670754 423.16063967 -4.57294549 422.6767745 3.43155271 422.7719816 C4.48700664 422.7685639 5.54246057 422.7651462 6.62989795 422.76162493 C10.1600538 422.75504597 13.68944624 422.77702342 17.21953183 422.7988981 C19.75255167 422.80002657 22.28557282 422.79939273 24.81859189 422.79712808 C30.26866633 422.79621775 35.71849574 422.80754942 41.16851979 422.83007944 C49.04821477 422.86263228 56.9278172 422.87300979 64.80757213 422.8780314 C77.59289384 422.88677892 90.37811329 422.91337971 103.16337949 422.95124185 C115.58069201 422.98797603 127.99797671 423.01628089 140.41533262 423.0332731 C141.56406081 423.03484944 141.56406081 423.03484944 142.73599564 423.03645763 C146.57800734 423.0416779 150.42001923 423.0467327 154.26203126 423.05170524 C186.11913055 423.09315038 217.9760396 423.16687903 249.83305722 423.25299966 C249.83305722 404.44299966 249.83305722 385.63299966 249.83305722 366.25299966 C242.17530088 366.27394693 234.51754453 366.29489419 226.62773496 366.31647623 C202.1239158 366.38068036 177.6200989 366.42517131 153.11621788 366.45726098 C149.30983534 366.46226379 145.50345305 366.46744108 141.6970709 366.47272623 C140.93929092 366.47377547 140.18151094 366.47482471 139.40076793 366.47590575 C127.13198985 366.49330948 114.86328676 366.52484698 102.59455317 366.56161085 C90.00505589 366.59902117 77.41559788 366.6212357 64.8260473 366.62935364 C57.05801596 366.63484124 49.2901966 366.65217125 41.52223051 366.68466553 C35.56505942 366.70831518 29.60799705 366.71081926 23.65077764 366.70543039 C21.20745521 366.70653176 18.76412483 366.71450068 16.32085019 366.72982156 C12.98615789 366.74970833 9.65237422 366.74494278 6.31766111 366.73401773 C5.34975013 366.7456691 4.38183915 366.75732046 3.38459754 366.7693249 C-3.56790075 366.70771388 -7.84142389 365.26822672 -13.09272403 360.50690591 C-13.55034121 359.94874185 -14.0079584 359.39057779 -14.47944278 358.81549966 C-14.94995059 358.25991373 -15.4204584 357.70432779 -15.90522403 357.13190591 C-18.67401185 353.00872651 -19.41751596 349.34768085 -19.42700499 344.42828786 C-19.43407058 343.25632869 -19.44113618 342.08436952 -19.44841588 340.87689644 C-19.44600079 339.59344993 -19.44358571 338.31000341 -19.44109744 336.98766458 C-19.44555059 335.60723977 -19.45086489 334.22681752 -19.45696616 332.84639901 C-19.4711472 329.05359372 -19.47280944 325.26087038 -19.47236925 321.46804237 C-19.47401735 317.37726057 -19.48708368 313.28651253 -19.49856204 309.19574869 C-19.52141089 300.25157847 -19.52933238 291.30743199 -19.53438848 282.36323655 C-19.53764535 276.77853721 -19.54416773 271.19384477 -19.55138987 265.60914934 C-19.57095491 250.14647237 -19.58735993 234.6838018 -19.59026641 219.22111166 C-19.59045398 218.23164999 -19.59064155 217.24218832 -19.5908348 216.22274296 C-19.59120105 214.21687245 -19.59156475 212.21100194 -19.59192591 210.20513143 C-19.59210872 209.20941672 -19.59229153 208.213702 -19.59247988 207.18781412 C-19.59266043 206.19088416 -19.59284098 205.1939542 -19.593027 204.16681425 C-19.5965694 188.00939396 -19.62359633 171.85210689 -19.66097777 155.69473281 C-19.69905024 139.1059467 -19.7184238 122.51722671 -19.71872592 105.92839593 C-19.71931069 96.61441333 -19.7278158 87.30058968 -19.75672358 77.98664796 C-19.78122317 70.05655708 -19.78852994 62.12668313 -19.77347606 54.19656464 C-19.76630152 50.1509227 -19.76718765 46.10570926 -19.78988665 42.06011522 C-19.81047899 38.35447728 -19.80787482 34.64959719 -19.78701181 30.94396744 C-19.78186535 28.97272885 -19.80129451 27.00147306 -19.82167351 25.0303331 C-19.74427487 16.86905899 -18.49221839 11.57582985 -12.65347493 5.7403875 C-8.72145515 2.28214042 -5.27775038 0.00431167 0 0 Z " fill="#333436" transform="translate(246.16694277524948,231.74700033664703)"/>
<path d="M0 0 C58.41 0 116.82 0 177 0 C177 30.03 177 60.06 177 91 C118.59 91 60.18 91 0 91 C0 60.97 0 30.94 0 0 Z " fill="#FAFAFB" transform="translate(441,370)"/>
<path d="M0 0 C58.41 0 116.82 0 177 0 C177 29.7 177 59.4 177 90 C118.59 90 60.18 90 0 90 C0 60.3 0 30.6 0 0 Z " fill="#FAFBFB" transform="translate(441,479)"/>
<path d="M0 0 C58.41 0 116.82 0 177 0 C177 29.7 177 59.4 177 90 C118.59 90 60.18 90 0 90 C0 60.3 0 30.6 0 0 Z " fill="#FBFBFB" transform="translate(441,262)"/>
<path d="M0 0 C55.77 0 111.54 0 169 0 C169 30.03 169 60.06 169 91 C113.23 91 57.46 91 0 91 C0 60.97 0 30.94 0 0 Z " fill="#F9F9F9" transform="translate(255,370)"/>
<path d="M0 0 C42.08980207 -0.04030303 42.08980207 -0.04030303 59.66992188 -0.04882812 C71.82902445 -0.0547716 83.98812012 -0.0617746 96.1472168 -0.07543945 C105.00093626 -0.08538488 113.85465014 -0.09185309 122.70837504 -0.09408849 C127.39937535 -0.09539584 132.09035969 -0.09848321 136.7813549 -0.10573006 C141.19139252 -0.11248805 145.60140751 -0.11461742 150.01144981 -0.11310768 C151.63487623 -0.11338411 153.25830336 -0.11539054 154.88172531 -0.11920547 C157.0884505 -0.12413928 159.29508883 -0.12299947 161.5018158 -0.12025452 C162.73978377 -0.12117631 163.97775175 -0.1220981 165.25323391 -0.12304783 C168 0 168 0 169 1 C169.0951949 3.79993307 169.12552637 6.57502816 169.11352539 9.37524414 C169.11364593 10.26746139 169.11376646 11.15967863 169.11389065 12.07893276 C169.11314135 14.98103219 169.10551237 17.88306823 169.09765625 20.78515625 C169.09618688 22.57124806 169.09516614 24.35734029 169.09460449 26.14343262 C169.08935101 32.78312829 169.07538993 39.42281476 169.0625 46.0625 C169.041875 60.891875 169.02125 75.72125 169 91 C113.23 91 57.46 91 0 91 C0 60.97 0 30.94 0 0 Z " fill="#F8F8F8" transform="translate(255,478)"/>
<path d="M0 0 C55.44 0 110.88 0 168 0 C168 30.03 168 60.06 168 91 C112.56 91 57.12 91 0 91 C0 60.97 0 30.94 0 0 Z " fill="#F9F9F9" transform="translate(636,478)"/>
<path d="M0 0 C55.44 0 110.88 0 168 0 C168 30.03 168 60.06 168 91 C112.56 91 57.12 91 0 91 C0 60.97 0 30.94 0 0 Z " fill="#FAFAFA" transform="translate(636,370)"/>
<path d="M0 0 C55.44 0 110.88 0 168 0 C168 30.03 168 60.06 168 91 C112.56 91 57.12 91 0 91 C0 60.97 0 30.94 0 0 Z " fill="#F9FAFA" transform="translate(636,261)"/>
<path d="M0 0 C55.44 0 110.88 0 168 0 C168 30.03 168 60.06 168 91 C112.56 91 57.12 91 0 91 C0 60.97 0 30.94 0 0 Z " fill="#F9FAFA" transform="translate(255,261)"/>
<path d="M0 0 C49.83 0 99.66 0 151 0 C151 24.75 151 49.5 151 75 C101.17 75 51.34 75 0 75 C0 50.25 0 25.5 0 0 Z " fill="#FBFBFB" transform="translate(416,694)"/>
<path d="M0 0 C6.98038479 6.40337718 12.37288188 15.38418885 13 25 C13.061875 25.62777344 13.12375 26.25554688 13.1875 26.90234375 C13.72633546 36.21409409 10.79040176 46.01941912 4.74609375 53.1640625 C4.16988281 53.76992188 3.59367188 54.37578125 3 55 C2.35160156 55.68835938 1.70320312 56.37671875 1.03515625 57.0859375 C-6.93315268 64.83810785 -15.5037545 68.44302507 -26.5625 68.5625 C-38.44358884 68.35500447 -47.39779344 64.39926989 -55.90625 56.15234375 C-64.61680485 46.86969738 -66.43191354 37.08690891 -66.2109375 24.65625 C-65.94978997 20.12969286 -65.149776 16.94806771 -63 13 C-62.60941406 12.20207031 -62.21882812 11.40414062 -61.81640625 10.58203125 C-56.6397257 0.88858694 -48.37067006 -5.50267852 -38 -9 C-24.21095584 -12.67707844 -10.86900845 -8.87223985 0 0 Z " fill="#FAFAFA" transform="translate(779,703)"/>
<path d="M0 0 C3.76139878 2.67563419 6.82944548 6.21748471 8.89453125 10.34765625 C9.64070361 17.27639957 9.60029846 22.97947719 5.39453125 28.7265625 C1.79892658 32.61243734 -2.2473389 35.02444286 -7.5234375 35.62109375 C-13.43971913 35.83805189 -17.57750665 35.41810133 -22.44921875 31.9140625 C-26.89055789 27.71364506 -29.21602451 22.17724061 -29.41796875 16.09765625 C-29.33635418 10.5115926 -27.53757167 6.85971871 -23.6796875 2.875 C-16.44027962 -3.54132274 -8.43782319 -4.64329915 0 0 Z " fill="#F8F9F9" transform="translate(299.10546875,715.65234375)"/>
<path d="M0 0 C3.92964342 2.93305344 6.71633075 7.0576615 8.89453125 11.4140625 C9.65911612 18.15745038 9.09427734 23.92020861 4.89453125 29.4140625 C-0.68007125 34.50722206 -5.76697686 35.83096983 -13.24609375 35.76171875 C-19.02083683 35.05959835 -22.68749661 31.94110942 -26.54296875 27.7890625 C-30.03898972 22.47511062 -29.68443629 16.56253466 -29.10546875 10.4140625 C-26.46744627 4.83363032 -22.10564838 1.07205651 -16.73046875 -1.8984375 C-10.51374604 -3.52662678 -5.58382017 -3.06173966 0 0 Z " fill="#F8F8F9" transform="translate(368.10546875,715.5859375)"/>
<path d="M0 0 C1.48983398 0.00193359 1.48983398 0.00193359 3.00976562 0.00390625 C11.34260574 0.10491037 11.34260574 0.10491037 14.9375 2.375 C16.35791821 5.21583641 16.25202272 7.22977278 15.9375 10.375 C13.91350845 12.96187677 12.70291633 14.21564788 9.45141602 14.89257812 C8.54061279 14.89708984 7.62980957 14.90160156 6.69140625 14.90625 C5.68916016 14.91140625 4.68691406 14.9165625 3.65429688 14.921875 C2.61337891 14.90640625 1.57246094 14.8909375 0.5 14.875 C-0.53705078 14.89046875 -1.57410156 14.9059375 -2.64257812 14.921875 C-7.23373961 14.89828522 -10.22016181 14.86283267 -14.24609375 12.53125 C-16.0625 10.375 -16.0625 10.375 -16.6875 7.375 C-16.0625 4.375 -16.0625 4.375 -14.21484375 2.2109375 C-9.54270271 -0.51013597 -5.30540769 -0.13133908 0 0 Z " fill="#F3F4F4" transform="translate(672.0625,726.625)"/>
<path d="M0 0 C1.43569336 -0.00580078 1.43569336 -0.00580078 2.90039062 -0.01171875 C3.89361328 -0.00011719 4.88683594 0.01148438 5.91015625 0.0234375 C7.39418945 0.00603516 7.39418945 0.00603516 8.90820312 -0.01171875 C18.3718186 0.02646665 18.3718186 0.02646665 21.97265625 3.3984375 C22.6015625 5.3359375 22.6015625 5.3359375 22.53515625 7.3984375 C22.53708984 8.419375 22.53708984 8.419375 22.5390625 9.4609375 C21.73051137 12.22673999 20.40102317 12.90676334 17.97265625 14.3984375 C14.18359047 15.03844468 10.37266164 14.90794216 6.53515625 14.8984375 C4.97958008 14.94097656 4.97958008 14.94097656 3.39257812 14.984375 C-4.19311201 15.00386296 -4.19311201 15.00386296 -8.24609375 12.0625 C-10.02734375 9.3984375 -10.02734375 9.3984375 -10.08984375 6.2734375 C-8.22240155 1.2203586 -5.18658928 0.02019812 0 0 Z " fill="#F2F2F2" transform="translate(610.02734375,726.6015625)"/>
<path d="M0 0 C1.09763672 -0.01611328 2.19527344 -0.03222656 3.32617188 -0.04882812 C4.38255859 -0.04947266 5.43894531 -0.05011719 6.52734375 -0.05078125 C7.492771 -0.05376221 8.45819824 -0.05674316 9.45288086 -0.05981445 C12.51918407 0.37765513 13.89050457 1.121582 16.0625 3.3125 C16.80414742 9.24567937 16.80414742 9.24567937 14.88647461 12.00415039 C10.95608116 14.82344881 5.27673817 13.77869833 0.625 13.75 C-0.52033203 13.76998047 -1.66566406 13.78996094 -2.84570312 13.81054688 C-3.94720703 13.80990234 -5.04871094 13.80925781 -6.18359375 13.80859375 C-7.69457642 13.81137329 -7.69457642 13.81137329 -9.23608398 13.81420898 C-12.66467866 13.17744784 -13.87185834 12.08384349 -15.9375 9.3125 C-15.875 5.6875 -15.875 5.6875 -14.9375 2.3125 C-10.27710179 -0.79443214 -5.48035279 -0.0160338 0 0 Z " fill="#F9F9F9" transform="translate(671.9375,691.6875)"/>
<path d="M0 0 C1.00675781 0.00386719 2.01351562 0.00773438 3.05078125 0.01171875 C4.61892578 0.04845703 4.61892578 0.04845703 6.21875 0.0859375 C7.26417969 0.08722656 8.30960938 0.08851563 9.38671875 0.08984375 C18.1565758 0.19090484 18.1565758 0.19090484 21.71875 2.4609375 C23.11810013 5.25963777 22.97140405 7.36592542 22.71875 10.4609375 C21.5703125 12.12744141 21.5703125 12.12744141 19.71875 13.4609375 C17.0390625 13.84912109 17.0390625 13.84912109 13.84375 13.859375 C12.69390625 13.86324219 11.5440625 13.86710938 10.359375 13.87109375 C9.15796875 13.85949219 7.9565625 13.84789062 6.71875 13.8359375 C5.51734375 13.84753906 4.3159375 13.85914063 3.078125 13.87109375 C1.35335937 13.86529297 1.35335937 13.86529297 -0.40625 13.859375 C-1.46070313 13.85599121 -2.51515625 13.85260742 -3.6015625 13.84912109 C-6.28125 13.4609375 -6.28125 13.4609375 -8.12109375 12.11962891 C-9.96156941 9.48827544 -9.72642215 7.57714253 -9.28125 4.4609375 C-6.42216188 0.81798546 -4.58870118 -0.0411145 0 0 Z " fill="#F7F7F7" transform="translate(665.28125,761.5390625)"/>
<path d="M0 0 C1.56137695 -0.01063477 1.56137695 -0.01063477 3.15429688 -0.02148438 C12.03714582 0.05277738 12.03714582 0.05277738 15.4375 3.4375 C16.17914742 9.37067937 16.17914742 9.37067937 14.26147461 12.12915039 C10.33108116 14.94844881 4.65173817 13.90369833 0 13.875 C-1.14533203 13.89498047 -2.29066406 13.91496094 -3.47070312 13.93554688 C-4.57220703 13.93490234 -5.67371094 13.93425781 -6.80859375 13.93359375 C-8.31957642 13.93637329 -8.31957642 13.93637329 -9.86108398 13.93920898 C-13.2667702 13.30670242 -14.44395983 12.12464734 -16.5625 9.4375 C-17.125 6.9375 -17.125 6.9375 -16.5625 4.4375 C-12.01845842 -0.89979022 -6.46664001 -0.12459033 0 0 Z " fill="#F6F6F7" transform="translate(616.5625,761.5625)"/>
<path d="M0 0 C1.051875 -0.00064453 2.10375 -0.00128906 3.1875 -0.00195312 C4.8271875 0.02801758 4.8271875 0.02801758 6.5 0.05859375 C7.593125 0.05150391 8.68625 0.04441406 9.8125 0.03710938 C19.13136699 0.11134055 19.13136699 0.11134055 22.5 3.49609375 C23.24164742 9.42927312 23.24164742 9.42927312 21.32397461 12.18774414 C17.39358116 15.00704256 11.71423817 13.96229208 7.0625 13.93359375 C5.91716797 13.95357422 4.77183594 13.97355469 3.59179688 13.99414062 C2.49029297 13.99349609 1.38878906 13.99285156 0.25390625 13.9921875 C-1.25707642 13.99496704 -1.25707642 13.99496704 -2.79858398 13.99780273 C-6.20402598 13.36534152 -7.38445945 12.18570679 -9.5 9.49609375 C-10 6.99609375 -10 6.99609375 -9.5 4.49609375 C-6.55835142 0.79136995 -4.68548399 -0.00905293 0 0 Z " fill="#F9F9F9" transform="translate(609.5,691.50390625)"/>
</svg>
