<?xml version="1.0" encoding="UTF-8"?>
<svg xmlns="http://www.w3.org/2000/svg" version="1.1" width="100%" height="100%" viewBox="0 0 1024 1536">

<path d="M0 0 C12.73025378 5.47663092 21.75570543 21.94825043 26.94140625 34.078125 C31.21051771 45.86150275 33.16089946 57.43348215 33.12025452 69.92150879 C33.12110894 70.89206254 33.12196337 71.8626163 33.12284368 72.86258078 C33.12448452 76.09916146 33.11900004 79.33568976 33.11352539 82.57226562 C33.11324319 84.89853921 33.11340189 87.22481289 33.1139679 89.55108643 C33.11425459 95.85620455 33.10837844 102.16130361 33.10139394 108.46641731 C33.09577317 114.39117432 33.09477027 120.31593061 33.09374207 126.24068993 C33.09155634 137.97166146 33.08490926 149.70262601 33.07543945 161.43359375 C33.06625293 172.82552049 33.05918964 184.21744531 33.05493164 195.609375 C33.05466364 196.31936173 33.05439565 197.02934847 33.05411953 197.76084995 C33.05180651 203.93723102 33.04965379 210.11361215 33.04751682 216.28999329 C33.03811621 242.86000209 33.0181931 269.42999239 33 296 C77.22 296 121.44 296 167 296 C167.33 304.58 167.66 313.16 168 322 C172.69265356 327.08675271 172.69265356 327.08675271 178.58000183 327.67764282 C179.29287857 327.66752167 180.00575531 327.65740051 180.74023438 327.64697266 C181.50346512 327.65573425 182.26669586 327.66449585 183.05305481 327.67352295 C185.56720416 327.69546735 188.07958388 327.68098339 190.59375 327.6640625 C192.34582862 327.6674321 194.09790496 327.67228592 195.84997559 327.67855835 C199.51853737 327.68592291 203.18648965 327.67523802 206.85498047 327.65185547 C211.55296086 327.62336744 216.24951309 327.63977372 220.9474411 327.66971779 C224.56437911 327.68780233 228.18097957 327.68202754 231.79792786 327.66907883 C233.52985301 327.66574799 235.26180899 327.6698206 236.99369812 327.68147659 C239.4165439 327.69420509 241.83709074 327.67478404 244.25976562 327.64697266 C245.32908073 327.66215439 245.32908073 327.66215439 246.41999817 327.67764282 C252.2339385 327.5542598 252.38075438 326.61924562 257 322 C257.33 313.42 257.66 304.84 258 296 C303.21 296 348.42 296 395 296 C395 199.31 395 102.62 395 3 C400.05568968 3 401.14666447 4.25678257 404.72265625 7.56640625 C416.16814766 19.79718009 423.86323532 34.83103266 428 51 C428.1775051 51.68324939 428.3550102 52.36649878 428.53789425 53.07045269 C429.20334707 57.28913101 429.13376693 61.44821881 429.12025452 65.71260071 C429.12153615 67.18908774 429.12153615 67.18908774 429.12284368 68.6954028 C429.12449195 71.99657931 429.11898775 75.29770511 429.11352539 78.59887695 C429.11324335 80.9641164 429.11340158 83.32935594 429.1139679 85.69459534 C429.11425522 92.11972183 429.10836894 98.54482971 429.10139394 104.96995187 C429.09530528 111.00312523 429.09477109 117.03630064 429.09374207 123.06947651 C429.09155409 135.01840777 429.0849009 146.96733221 429.07543945 158.91625977 C429.06625876 170.52270473 429.05918114 182.12914784 429.05493164 193.7355957 C429.05453756 194.80894368 429.05453756 194.80894368 429.05413551 195.90397546 C429.05283046 199.49379938 429.05156675 203.08362331 429.05032361 206.67344725 C429.03995892 236.44896953 429.02227311 266.22448414 429 296 C430.1144751 295.98428955 431.2289502 295.9685791 432.37719727 295.95239258 C436.53500057 295.89785369 440.6927726 295.8635632 444.85083008 295.83520508 C446.64613167 295.82017284 448.44139688 295.79974143 450.23657227 295.77368164 C452.82577526 295.73705214 455.41449028 295.7202179 458.00390625 295.70703125 C459.19651817 295.68380547 459.19651817 295.68380547 460.41322327 295.66011047 C466.82758799 295.65819869 471.08606797 297.26551665 476.625 300.5625 C485.38511651 309.55314589 484.72599421 320.05246598 484.62890625 331.78125 C484.62973646 333.60388328 484.63220155 335.42651646 484.63621521 337.24914551 C484.63906207 341.05516294 484.62448145 344.86058828 484.59692383 348.66650391 C484.56284299 353.52175137 484.56886992 358.37594121 484.5875864 363.23123932 C484.59820313 366.99074978 484.58917634 370.75001821 484.57420158 374.50950623 C484.56905354 376.29869364 484.5694601 378.08790668 484.57574654 379.87709045 C484.62028115 400.16385538 484.62028115 400.16385538 478.0703125 408.4375 C477.42835938 408.953125 476.78640625 409.46875 476.125 410 C475.48820313 410.53625 474.85140625 411.0725 474.1953125 411.625 C468.20632053 415.37611241 462.4577015 415.25171201 455.625 415.125 C454.69816406 415.11597656 453.77132813 415.10695313 452.81640625 415.09765625 C450.54399923 415.07422937 448.2721382 415.04142748 446 415 C446.01047363 415.83772949 446.02094727 416.67545898 446.03173828 417.53857422 C446.06580019 420.64338164 446.09088911 423.74809392 446.10986328 426.85302734 C446.12488107 428.8591136 446.15028981 430.86511324 446.17578125 432.87109375 C446.18222656 434.12792969 446.18867187 435.38476562 446.1953125 436.6796875 C446.20578613 437.84226074 446.21625977 439.00483398 446.22705078 440.20263672 C446 443 446 443 444 445 C441.53981018 445.26069641 441.53981018 445.26069641 438.40454102 445.2746582 C437.23315079 445.28419022 436.06176056 445.29372223 434.85487366 445.30354309 C433.58405441 445.30263168 432.31323517 445.30172028 431.00390625 445.30078125 C429.70428452 445.30506638 428.40466278 445.3093515 427.06565857 445.31376648 C424.31252977 445.32123352 421.5595292 445.32093413 418.80639648 445.31567383 C415.27762838 445.3098803 411.74938535 445.32680424 408.22070408 445.3500185 C404.85674918 445.36829154 401.49291057 445.36457065 398.12890625 445.36328125 C396.86011124 445.372491 395.59131622 445.38170074 394.28407288 445.39118958 C393.10953049 445.38496078 391.9349881 445.37873199 390.72485352 445.37231445 C389.6894191 445.37294388 388.65398468 445.3735733 387.58717346 445.3742218 C385 445 385 445 382 442 C382 433.09 382 424.18 382 415 C271.12 415 160.24 415 46 415 C46 423.91 46 432.82 46 442 C43.32806098 444.67193902 42.02973245 444.25316128 38.296875 444.25878906 C37.10223633 444.26509338 35.90759766 444.27139771 34.67675781 444.27789307 C33.38092773 444.2738446 32.08509766 444.26979614 30.75 444.265625 C29.41243418 444.26697178 28.07486883 444.26891243 26.73730469 444.27142334 C23.93289534 444.274374 21.12861331 444.27007894 18.32421875 444.26074219 C14.72595078 444.24934754 11.12798114 444.25590734 7.52972412 444.26788712 C4.76739242 444.27510736 2.00513167 444.27281706 -0.75720215 444.26763153 C-2.73038933 444.26564475 -4.70357926 444.27172842 -6.67675781 444.27789307 C-7.87139648 444.27158875 -9.06603516 444.26528442 -10.296875 444.25878906 C-11.35229492 444.25719788 -12.40771484 444.25560669 -13.49511719 444.25396729 C-16 444 -16 444 -18 442 C-18.22705078 439.29443359 -18.22705078 439.29443359 -18.1953125 435.8984375 C-18.18886719 434.68671875 -18.18242187 433.475 -18.17578125 432.2265625 C-18.15902344 430.95554687 -18.14226562 429.68453125 -18.125 428.375 C-18.11597656 427.09625 -18.10695313 425.8175 -18.09765625 424.5 C-18.07402303 421.33314833 -18.04107629 418.16666576 -18 415 C-18.56396484 415.02094727 -19.12792969 415.04189453 -19.70898438 415.06347656 C-22.30580249 415.14748501 -24.90233362 415.19892229 -27.5 415.25 C-28.386875 415.28351563 -29.27375 415.31703125 -30.1875 415.3515625 C-37.35648172 415.4569887 -42.42867733 413.94686743 -47.98828125 409.359375 C-48.42527344 408.82828125 -48.86226562 408.2971875 -49.3125 407.75 C-49.76238281 407.22921875 -50.21226562 406.7084375 -50.67578125 406.171875 C-54.36134434 400.12711666 -55.44649887 394.52787288 -55.40405273 387.59960938 C-55.41091599 386.80174515 -55.41777924 386.00388092 -55.42485046 385.18183899 C-55.44301239 382.56895684 -55.43929682 379.95668114 -55.43359375 377.34375 C-55.43816015 375.51346646 -55.44346708 373.68318464 -55.44947815 371.85290527 C-55.45838803 368.02670299 -55.45600979 364.20070967 -55.44604492 360.37451172 C-55.43454889 355.48544312 -55.4547872 350.59709612 -55.48396206 345.70812225 C-55.50235667 341.93157415 -55.50202527 338.15519802 -55.49632454 334.37861633 C-55.49617177 332.5765939 -55.50217904 330.77455948 -55.51461601 328.97257996 C-55.5295891 326.44806315 -55.51880426 323.92486769 -55.50170898 321.40039062 C-55.51137695 320.66560989 -55.52104492 319.93082916 -55.53100586 319.17378235 C-55.44026752 312.73517018 -53.29342241 307.57114152 -49 302.7578125 C-48.34 302.21898437 -47.68 301.68015625 -47 301.125 C-46.34 300.57070313 -45.68 300.01640625 -45 299.4453125 C-40.21670158 295.988632 -36.35249117 295.72829263 -30.515625 295.8046875 C-29.70003113 295.8075174 -28.88443726 295.81034729 -28.04412842 295.81326294 C-25.44593472 295.82443442 -22.84808905 295.84953325 -20.25 295.875 C-18.48568207 295.88503373 -16.72135872 295.89415889 -14.95703125 295.90234375 C-10.63788727 295.92436381 -6.31900259 295.95887267 -2 296 C-2.00075944 295.37866436 -2.00151888 294.75732872 -2.00230134 294.11716473 C-2.04701802 257.32496341 -2.08135313 220.5327661 -2.10213066 183.74054319 C-2.10463219 179.32686599 -2.10722083 174.91318884 -2.10986328 170.49951172 C-2.1103879 169.6207956 -2.11091252 168.74207947 -2.11145304 167.83673559 C-2.1201653 153.5923204 -2.13593978 139.34792128 -2.15430559 125.10351564 C-2.17298183 110.4969667 -2.18411189 95.8904262 -2.18817699 81.28386581 C-2.19092679 72.26448184 -2.19962438 63.24514331 -2.21583293 54.22577332 C-2.22637176 48.04820516 -2.2296077 41.87066064 -2.22700275 35.69308414 C-2.2257166 32.12428557 -2.2277441 28.55556663 -2.23841095 24.98678207 C-2.24986946 21.12512006 -2.24599782 17.26356322 -2.24050903 13.40188599 C-2.24633472 12.26377287 -2.2521604 11.12565975 -2.25816262 9.95305836 C-2.25418052 8.92495797 -2.25019842 7.89685757 -2.24609566 6.83760262 C-2.2468551 5.94525984 -2.24761454 5.05291706 -2.24839699 4.1335336 C-2 2 -2 2 0 0 Z " fill="#636876" transform="translate(287,351)"/>
<path d="M0 0 C14.62270579 6.96319323 24.06175651 24.95370728 29.28125 39.59375 C30.26590486 42.71651255 31.18849188 45.82813762 32 49 C32.1775051 49.68324939 32.3550102 50.36649878 32.53789425 51.07045269 C33.20334707 55.28913101 33.13376693 59.44821881 33.12025452 63.71260071 C33.12110894 64.6969254 33.12196337 65.68125009 33.12284368 66.6954028 C33.12449195 69.99657931 33.11898775 73.29770511 33.11352539 76.59887695 C33.11324335 78.9641164 33.11340158 81.32935594 33.1139679 83.69459534 C33.11425522 90.11972183 33.10836894 96.54482971 33.10139394 102.96995187 C33.09530528 109.00312523 33.09477109 115.03630064 33.09374207 121.06947651 C33.09155409 133.01840777 33.0849009 144.96733221 33.07543945 156.91625977 C33.06625876 168.52270473 33.05918114 180.12914784 33.05493164 191.7355957 C33.05466892 192.45116102 33.05440619 193.16672635 33.05413551 193.90397546 C33.05283046 197.49379938 33.05156675 201.08362331 33.05032361 204.67344725 C33.03995892 234.44896953 33.02227311 264.22448414 33 294 C34.1144751 293.98428955 35.2289502 293.9685791 36.37719727 293.95239258 C40.53500057 293.89785369 44.6927726 293.8635632 48.85083008 293.83520508 C50.64613167 293.82017284 52.44139688 293.79974143 54.23657227 293.77368164 C56.82577526 293.73705214 59.41449028 293.7202179 62.00390625 293.70703125 C63.19651817 293.68380547 63.19651817 293.68380547 64.41322327 293.66011047 C70.82758799 293.65819869 75.08606797 295.26551665 80.625 298.5625 C89.38511651 307.55314589 88.72599421 318.05246598 88.62890625 329.78125 C88.62973646 331.60388328 88.63220155 333.42651646 88.63621521 335.24914551 C88.63906207 339.05516294 88.62448145 342.86058828 88.59692383 346.66650391 C88.56284299 351.52175137 88.56886992 356.37594121 88.5875864 361.23123932 C88.59820313 364.99074978 88.58917634 368.75001821 88.57420158 372.50950623 C88.56905354 374.29869364 88.5694601 376.08790668 88.57574654 377.87709045 C88.62028115 398.16385538 88.62028115 398.16385538 82.0703125 406.4375 C81.10738281 407.2109375 81.10738281 407.2109375 80.125 408 C79.16980469 408.804375 79.16980469 408.804375 78.1953125 409.625 C72.20632053 413.37611241 66.4577015 413.25171201 59.625 413.125 C58.69816406 413.11597656 57.77132812 413.10695313 56.81640625 413.09765625 C54.54399923 413.07422937 52.2721382 413.04142748 50 413 C50.01047363 413.83772949 50.02094727 414.67545898 50.03173828 415.53857422 C50.06580019 418.64338164 50.09088911 421.74809392 50.10986328 424.85302734 C50.12488107 426.8591136 50.15028981 428.86511324 50.17578125 430.87109375 C50.18222656 432.12792969 50.18867187 433.38476562 50.1953125 434.6796875 C50.20578613 435.84226074 50.21625977 437.00483398 50.22705078 438.20263672 C50 441 50 441 48 443 C45.53981018 443.26069641 45.53981018 443.26069641 42.40454102 443.2746582 C41.23315079 443.28419022 40.06176056 443.29372223 38.85487366 443.30354309 C37.58405441 443.30263168 36.31323517 443.30172028 35.00390625 443.30078125 C33.70428452 443.30506638 32.40466278 443.3093515 31.06565857 443.31376648 C28.31252977 443.32123352 25.5595292 443.32093413 22.80639648 443.31567383 C19.27762838 443.3098803 15.74938535 443.32680424 12.22070408 443.3500185 C8.85674918 443.36829154 5.49291057 443.36457065 2.12890625 443.36328125 C0.86011124 443.372491 -0.40868378 443.38170074 -1.71592712 443.39118958 C-3.47774071 443.38184639 -3.47774071 443.38184639 -5.27514648 443.37231445 C-6.3105809 443.37294388 -7.34601532 443.3735733 -8.41282654 443.3742218 C-11 443 -11 443 -12.83651733 441.65292358 C-14.63811354 439.09345196 -14.33647803 436.88994035 -14.29296875 433.80078125 C-14.28330078 432.59228516 -14.27363281 431.38378906 -14.26367188 430.13867188 C-14.23853516 428.87603516 -14.21339844 427.61339844 -14.1875 426.3125 C-14.17396484 425.03826172 -14.16042969 423.76402344 -14.14648438 422.45117188 C-14.11108199 419.30035943 -14.0616979 416.15038955 -14 413 C-12.76080811 412.99383667 -12.76080811 412.99383667 -11.49658203 412.98754883 C-8.3835014 412.96031754 -5.27171457 412.91097161 -2.15917969 412.84741211 C-0.16883601 412.81325235 1.82188304 412.80380856 3.8125 412.79492188 C11.8576763 412.61207696 18.34303489 411.78547554 25 407 C30.79058227 400.91897317 32.30078963 394.21154584 32.29052734 385.93432617 C32.29724457 385.14811386 32.30396179 384.36190155 32.31088257 383.55186462 C32.32980303 380.96550082 32.33378382 378.37939736 32.3359375 375.79296875 C32.34236986 373.98464351 32.34909855 372.1763193 32.35610962 370.36799622 C32.36806772 366.5811624 32.37179198 362.79441971 32.37060547 359.00756836 C32.37040243 354.17237838 32.39769518 349.33777717 32.43214989 344.50272655 C32.45446744 340.768187 32.45844151 337.03378801 32.45738602 333.29918861 C32.45973502 331.51751999 32.46851882 329.73584708 32.48405075 327.95424461 C32.94142713 313.45422535 32.94142713 313.45422535 26.22055054 301.14494324 C23.35402994 298.50851609 20.48797937 296.70927221 17 295 C16.99761165 293.81908279 16.99522329 292.63816559 16.99276257 291.42146301 C16.93528924 263.33117501 16.86247865 235.24095671 16.77101372 207.15075856 C16.75974679 203.68644357 16.74860814 200.22212817 16.73754883 196.7578125 C16.73534514 196.06818684 16.73314146 195.37856118 16.730871 194.66803777 C16.69558671 183.53056686 16.67067268 172.39309601 16.64965298 161.25559008 C16.62781999 149.81069929 16.59448005 138.36589428 16.55129844 126.92106152 C16.5274299 120.4997407 16.50865941 114.07849912 16.50238609 107.65713501 C16.49630642 101.60295001 16.47620287 95.54896757 16.44572449 89.49485779 C16.4369903 87.28271393 16.433212 85.07054356 16.43499184 82.85838318 C16.44807578 59.07509178 12.55476533 41.4588499 1 20 C0.67 110.42 0.34 200.84 0 294 C-0.33 294 -0.66 294 -1 294 C-1.02286502 256.69055489 -1.04049754 219.38111083 -1.05106533 182.07166013 C-1.05231611 177.67171547 -1.05361042 173.27177082 -1.05493164 168.87182617 C-1.05519395 167.99583835 -1.05545626 167.11985054 -1.05572652 166.21731763 C-1.0600835 152.0142657 -1.0679712 137.81121779 -1.0771528 123.60816825 C-1.08648857 109.04569387 -1.09205545 94.48322161 -1.09408849 79.92074436 C-1.09546388 70.92747538 -1.09981532 61.93421778 -1.10791647 52.94095229 C-1.11318298 46.7825511 -1.11480451 40.62415583 -1.11350138 34.46575255 C-1.11285785 30.90722761 -1.11387717 27.34872262 -1.11920547 23.79020119 C-1.12492675 19.94134912 -1.12300108 16.09252348 -1.12025452 12.2436676 C-1.12316736 11.10653259 -1.1260802 9.96939758 -1.12908131 8.79780394 C-1.12709026 7.77517799 -1.12509921 6.75255203 -1.12304783 5.69893742 C-1.12342755 4.80925268 -1.12380727 3.91956795 -1.1241985 3.00292307 C-1 1 -1 1 0 0 Z " fill="#4B4D59" transform="translate(683,353)"/>
<path d="M0 0 C2.77922753 0.01608885 5.55699738 0.00003106 8.33618164 -0.01904297 C55.32442093 -0.07281443 108.52367942 15.88238502 142.84594727 49.39111328 C145.68498251 53.09924095 146.25646791 55.74974969 146.22094727 60.39111328 C146.22868164 61.40173828 146.23641602 62.41236328 146.24438477 63.45361328 C145.39291462 69.73111864 141.59917014 72.75034682 136.84594727 76.39111328 C133.01074974 78.30871204 129.00721348 78.08180356 124.84594727 77.39111328 C120.86000386 75.4857758 117.3973955 73.00473319 113.84594727 70.39111328 C73.69438035 41.55440016 24.9460126 29.34442077 -24.15405273 36.51611328 C-52.14153764 41.3118309 -79.10654064 52.87894398 -102.15405273 69.39111328 C-104.0284535 70.70446892 -105.90342801 72.0170062 -107.77905273 73.32861328 C-108.57569336 73.89451172 -109.37233398 74.46041016 -110.19311523 75.04345703 C-114.87115668 78.25844568 -119.62265717 77.95442372 -125.15405273 77.39111328 C-129.60551525 75.20584986 -132.34290419 72.45166118 -135.15405273 68.39111328 C-136.83054869 63.36162542 -137.40023255 58.03250352 -135.08227539 53.11938477 C-131.39814149 47.61301107 -127.5435841 43.8111439 -122.09155273 40.07861328 C-121.31207275 39.53301758 -120.53259277 38.98742187 -119.72949219 38.42529297 C-84.19750514 14.01266154 -43.2452323 -0.29612221 0 0 Z " fill="#559EFE" transform="translate(494.154052734375,280.60888671875)"/>
<path d="M0 0 C3.3931411 3.07871876 5.3530871 5.56035901 5.9609375 10.17578125 C6.05188237 16.60558384 5.60792587 20.4891219 1.625 25.625 C-1.96112185 29.03618908 -4.8634394 29.93147444 -9.6875 30.1875 C-16.66821508 29.90449804 -21.15575252 26.98724644 -26.6640625 22.9453125 C-49.81683959 5.97666479 -80.89567661 1.64540555 -108.75390625 5.93359375 C-127.01005363 9.41939535 -143.30343799 16.19250391 -158.28125 27.20703125 C-162.90357615 30.33744989 -167.98888291 30.22999287 -173.375 29.625 C-178.69065158 26.96717421 -182.47736008 23.31791975 -184.375 17.625 C-184.61328125 15.35546875 -184.61328125 15.35546875 -184.6875 12.8125 C-184.72488281 11.98105469 -184.76226562 11.14960938 -184.80078125 10.29296875 C-183.58702062 2.68747782 -176.93107993 -1.52707834 -171.1328125 -5.78515625 C-121.75390765 -40.53760824 -46.56564651 -39.95584979 0 0 Z " fill="#569EFD" transform="translate(588.375,377.375)"/>
<path d="M0 0 C12.56750827 5.40661683 21.90881329 21.8886768 26.85455704 33.98647976 C32.23251191 48.13522081 32.5533972 61.09515711 32.45410156 76.10131836 C32.45297141 78.50744101 32.45361022 80.91356504 32.45587158 83.31968689 C32.45689502 89.139094 32.43967512 94.95823422 32.41412094 100.77758055 C32.38535547 107.55735158 32.37952549 114.33708644 32.37496826 121.11690993 C32.36624434 133.20454212 32.33970821 145.29206547 32.30175781 157.37963867 C32.26496212 169.11172954 32.23668752 180.8437907 32.21972656 192.57592773 C32.21867567 193.3008138 32.21762477 194.02569987 32.21654204 194.77255218 C32.21132135 198.40960587 32.20626665 202.04665976 32.20129442 205.68371379 C32.15992293 235.78921874 32.08925404 265.89459655 32 296 C26.72 296 21.44 296 16 296 C15.99761165 294.79754607 15.99522329 293.59509214 15.99276257 292.35620022 C15.93530363 263.76106981 15.86250309 235.16600538 15.77101372 206.57096415 C15.75974663 203.04527528 15.74860801 199.51958601 15.73754883 195.99389648 C15.73534514 195.29204605 15.73314146 194.59019562 15.730871 193.867077 C15.69557559 182.52846801 15.67066779 171.18985908 15.64965298 159.85121565 C15.62782893 148.20180075 15.59449682 136.55246019 15.55129844 124.90310484 C15.52741787 118.36612097 15.50865522 111.8292151 15.50238609 105.29218864 C15.49631192 99.13048655 15.47622784 92.96898394 15.44572449 86.80735588 C15.43698159 84.55447783 15.43321384 82.30157367 15.43499184 80.04867935 C15.44627842 59.13540655 13.1327385 40.25769115 2 22 C1.67 21.67 1.34 21.34 1 21 C0.67 111.75 0.34 202.5 0 296 C-0.33 296 -0.66 296 -1 296 C-1.022865 258.4357667 -1.04049753 220.87153444 -1.05106533 183.30729559 C-1.05231611 178.87730838 -1.05361042 174.44732118 -1.05493164 170.01733398 C-1.05519395 169.13536494 -1.05545626 168.25339589 -1.05572652 167.34470051 C-1.0600835 153.04465069 -1.06797121 138.74460488 -1.0771528 124.44455744 C-1.08648855 109.78264196 -1.09205544 95.12072859 -1.09408849 80.45881027 C-1.09546389 71.40412239 -1.09981534 62.34944581 -1.10791647 53.29476141 C-1.11318296 47.09431066 -1.11480452 40.89386579 -1.11350138 34.69341297 C-1.11285784 31.11058488 -1.11387721 27.52777662 -1.11920547 23.94495201 C-1.1249267 20.06982563 -1.1230011 16.1947255 -1.12025452 12.31959534 C-1.12316736 11.17467843 -1.1260802 10.02976153 -1.12908131 8.85015017 C-1.12709026 7.82055742 -1.12509921 6.79096468 -1.12304783 5.73017216 C-1.12342755 4.8344119 -1.12380727 3.93865164 -1.1241985 3.01574713 C-1 1 -1 1 0 0 Z " fill="#464A56" transform="translate(287,351)"/>
<path d="M0 0 C3.78273897 3.70290495 5.79889943 7.04870093 8 11.8125 C8.34812744 12.56007568 8.69625488 13.30765137 9.05493164 14.07788086 C14.80726277 26.83644625 17.16646957 39.81716332 17.12025452 53.76965332 C17.12110894 54.72387287 17.12196337 55.67809241 17.12284368 56.6612277 C17.12448418 59.84253058 17.1190006 63.02378014 17.11352539 66.20507812 C17.11324318 68.49194335 17.11340191 70.77880866 17.1139679 73.06567383 C17.11425456 79.2633575 17.10837887 85.46102178 17.10139394 91.65870094 C17.09513872 98.1396131 17.09455488 104.62052572 17.09336853 111.10144043 C17.09061451 121.97583359 17.08437013 132.8502196 17.07543945 143.72460938 C17.06625267 154.92252568 17.05917803 166.12044006 17.05493164 177.31835938 C17.05453756 178.35468115 17.05453756 178.35468115 17.05413551 179.41193873 C17.05283042 182.87807817 17.05156672 186.34421763 17.05032361 189.81035709 C17.03996624 218.54024286 17.02228662 247.27012115 17 276 C16.26394531 275.9278125 15.52789063 275.855625 14.76953125 275.78125 C13.79371094 275.6884375 12.81789063 275.595625 11.8125 275.5 C10.84957031 275.4071875 9.88664063 275.314375 8.89453125 275.21875 C6.01826894 274.95942294 6.01826894 274.95942294 3.19921875 275.03125 C1 275 1 275 0 274 C-0.09671192 272.53521364 -0.12371783 271.06576805 -0.12304783 269.59779263 C-0.12503888 268.64135119 -0.12702993 267.68490975 -0.12908131 266.69948524 C-0.12616847 265.63627825 -0.12325563 264.57307126 -0.12025452 263.47764587 C-0.12110894 262.3578981 -0.12196337 261.23815033 -0.12284368 260.08447081 C-0.12450176 256.30100831 -0.11897178 252.51758933 -0.11352539 248.73413086 C-0.112688 246.03451001 -0.11335705 243.33489003 -0.1139679 240.63526917 C-0.11449333 234.80703715 -0.11134454 228.97881629 -0.10573006 223.15058708 C-0.09761763 214.72385181 -0.0950001 206.29712196 -0.09374207 197.87038321 C-0.09155114 184.1999627 -0.08488996 170.52954814 -0.07543945 156.85913086 C-0.06626638 143.57625356 -0.05918504 130.29337787 -0.05493164 117.01049805 C-0.05466892 116.19232398 -0.05440619 115.37414992 -0.05413551 114.5311827 C-0.05283051 110.42681782 -0.05156679 106.32245293 -0.05032361 102.21808803 C-0.03994973 68.1453877 -0.02233032 34.07269458 0 0 Z " fill="#5B5F6B" transform="translate(683,372)"/>
<path d="M0 0 C0.82838379 0.39703125 1.65676758 0.7940625 2.51025391 1.203125 C13.3728784 6.48818282 23.43261764 12.25783166 32.96875 19.6875 C38.21585652 23.69044724 41.25577846 25.69767809 48 25 C52.30809383 23.44017293 56.13922225 21.45685857 60 19 C60.56816102 29.83714547 60.56816102 29.83714547 57 34 C52.03245925 38.64961814 48.64871609 40.54115613 41.84765625 40.47265625 C36.40900188 39.56994407 32.35846945 36.20753163 28 33 C-12.15156692 4.16328688 -60.89993466 -8.04669251 -110 -0.875 C-137.9874849 3.92071762 -164.9524879 15.4878307 -188 32 C-189.87440076 33.31335564 -191.74937527 34.62589292 -193.625 35.9375 C-194.42164063 36.50339844 -195.21828125 37.06929688 -196.0390625 37.65234375 C-200.71710395 40.8673324 -205.46860443 40.56331044 -211 40 C-215.45146251 37.81473658 -218.18885145 35.0605479 -221 31 C-222.00496852 27.98509443 -222.10335303 25.95818308 -222.0625 22.8125 C-222.05347656 21.91144531 -222.04445313 21.01039063 -222.03515625 20.08203125 C-222.02355469 19.39496094 -222.01195312 18.70789063 -222 18 C-221.01 17.505 -221.01 17.505 -220 17 C-219.62875 17.763125 -219.2575 18.52625 -218.875 19.3125 C-216.51769856 22.69129873 -214.88371316 23.63350833 -211 25 C-206.01966422 25.75997846 -202.18009699 25.52101227 -197.9296875 22.69140625 C-196.56377389 21.66730419 -195.21261313 20.62329976 -193.875 19.5625 C-192.38574966 18.45048267 -190.89350736 17.34246206 -189.3984375 16.23828125 C-188.65948242 15.68736816 -187.92052734 15.13645508 -187.15917969 14.56884766 C-134.795637 -23.47820405 -57.77564638 -27.76753774 0 0 Z " fill="#4283E9" transform="translate(580,318)"/>
<path d="M0 0 C3.55302041 3.4543254 4.52755877 6.11328277 4.6875 11.078125 C4.37268512 16.19911371 3.45999137 19.22020976 -0.3046875 22.8203125 C-5.05024789 26.99923882 -8.84651027 27.90580452 -14.98828125 27.87890625 C-19.5138848 27.21139504 -23.09205654 25.0654263 -27.0859375 22.921875 C-35.95253623 18.25262973 -47.49622964 17.92252171 -57.1796875 20.24609375 C-60.8462036 21.54278847 -64.11340746 22.98310694 -67.42578125 25.02734375 C-72.51257669 27.9885564 -78.10862132 28.21723681 -83.875 27.453125 C-89.04526591 25.36156185 -92.0269887 21.59563149 -94.21484375 16.56640625 C-95.71134308 11.77583738 -95.63157729 7.99780364 -93.375 3.390625 C-83.21935963 -8.54225244 -69.52367021 -13.88698622 -54.046875 -15.421875 C-34.03715654 -16.57351347 -15.71596576 -12.96567175 0 0 Z " fill="#569EFD" transform="translate(544.875,428.546875)"/>
<path d="M0 0 C0.78463749 -0.00623996 1.56927498 -0.01247993 2.37768936 -0.01890898 C5.00958463 -0.03487699 7.64055863 -0.02222024 10.27246094 -0.00964355 C12.15816794 -0.01506299 14.04387071 -0.02218465 15.92956543 -0.03088379 C21.05350598 -0.04914126 26.17712489 -0.04203958 31.30107117 -0.02936745 C36.65905637 -0.01925235 42.01701373 -0.02862898 47.375 -0.03491211 C56.37342278 -0.04219286 65.37171432 -0.03258957 74.37011719 -0.0135498 C84.77894229 0.00821971 95.18745401 0.00116865 105.59627151 -0.02085543 C114.52715363 -0.03899722 123.45794132 -0.04157371 132.38883591 -0.03110075 C137.72546273 -0.02485912 143.06194217 -0.02404861 148.39855957 -0.0372467 C153.41535641 -0.0487868 158.43174855 -0.04081311 163.44850159 -0.01766968 C165.29158353 -0.01237274 167.13469943 -0.01391314 168.97776794 -0.02272034 C171.49019841 -0.03362079 174.00132493 -0.01997986 176.51367188 0 C177.2463541 -0.00892289 177.97903633 -0.01784577 178.73392105 -0.02703905 C182.11250981 0.02522483 183.96057997 0.28894678 186.70953369 2.32093048 C188.97563536 5.52390756 188.80329046 7.68275291 188.25683594 11.50793457 C186.70953369 13.69493866 186.70953369 13.69493866 184.25683594 15.50793457 C181.54027463 15.90092201 179.22859868 16.04893257 176.51367188 16.01586914 C175.72903439 16.0221091 174.9443969 16.02834907 174.13598251 16.03477812 C171.50408724 16.05074613 168.87311325 16.03808938 166.24121094 16.0255127 C164.35550394 16.03093213 162.46980117 16.03805379 160.58410645 16.04675293 C155.46016589 16.0650104 150.33654699 16.05790872 145.21260071 16.04523659 C139.8546155 16.03512149 134.49665814 16.04449812 129.13867188 16.05078125 C120.14024909 16.058062 111.14195755 16.04845871 102.14355469 16.02941895 C91.73472959 16.00764943 81.32621787 16.01470049 70.91740036 16.03672457 C61.98651824 16.05486636 53.05573056 16.05744285 44.12483597 16.04696989 C38.78820915 16.04072826 33.4517297 16.03991775 28.1151123 16.05311584 C23.09831546 16.06465594 18.08192333 16.05668225 13.06517029 16.03353882 C11.22208834 16.02824188 9.37897244 16.02978228 7.53590393 16.03858948 C5.02347346 16.04948993 2.51234694 16.03584901 0 16.01586914 C-0.73268223 16.02479203 -1.46536446 16.03371491 -2.22024918 16.04290819 C-5.59883793 15.99064431 -7.4469081 15.72692236 -10.19586182 13.69493866 C-12.46196349 10.49196158 -12.28961859 8.33311623 -11.74316406 4.50793457 C-8.55013455 -0.00519053 -5.16069449 -0.06284893 0 0 Z " fill="#3B3D46" transform="translate(410.7431640625,713.4920654296875)"/>
<path d="M0 0 C30.03 0 60.06 0 91 0 C91 26 91 26 87 31 C83.995444 32.502278 80.89675598 32.16475351 77.6003418 32.17700195 C76.83754913 32.18357315 76.07475647 32.19014435 75.28884888 32.19691467 C72.75897121 32.21666062 70.22915295 32.22831315 67.69921875 32.23828125 C66.83572123 32.24235678 65.9722237 32.2464323 65.08255959 32.25063133 C60.51215478 32.27149767 55.94178005 32.2857969 51.37133789 32.29516602 C46.65001113 32.30623131 41.92915558 32.34063076 37.20799541 32.38033772 C33.57828392 32.40648064 29.94868508 32.41485577 26.31888771 32.41844749 C24.57855866 32.42331954 22.83823484 32.43495114 21.09799767 32.45348549 C18.66089912 32.47782807 16.22502464 32.4769213 13.7878418 32.4699707 C13.07025192 32.48278076 12.35266205 32.49559082 11.61332703 32.50878906 C6.80569988 32.45886649 4.37483971 31.40714005 1 28 C-3.1766547 19.64669061 0 9.33928382 0 0 Z " fill="#83D9C3" transform="translate(454,647)"/>
<path d="M0 0 C0.67562988 0.18191895 1.35125977 0.36383789 2.04736328 0.55126953 C14.76197202 4.1019676 26.69469731 9.77353262 37.375 17.5 C41.84455757 20.55621099 45.07214881 22.12279636 50.53125 21.6796875 C55.20887143 20.39186135 59.08471203 17.79901438 63 15 C63.50264727 21.93932481 63.27570321 26.37407472 59 32 C55.41387815 35.41118908 52.5115606 36.30647444 47.6875 36.5625 C40.70678492 36.27949804 36.21924748 33.36224644 30.7109375 29.3203125 C7.55816041 12.35166479 -23.52067661 8.02040555 -51.37890625 12.30859375 C-69.63505363 15.79439535 -85.92843799 22.56750391 -100.90625 33.58203125 C-105.52857615 36.71244989 -110.61388291 36.60499287 -116 36 C-121.31565158 33.34217421 -125.10236008 29.69291975 -127 24 C-127.06802967 22.27204648 -127.08495645 20.54164635 -127.0625 18.8125 C-127.05347656 17.91144531 -127.04445313 17.01039063 -127.03515625 16.08203125 C-127.02355469 15.39496094 -127.01195312 14.70789063 -127 14 C-126.34 14 -125.68 14 -125 14 C-122.5 16.5 -122.5 16.5 -120 19 C-115.74992725 21.54512395 -111.84054049 21.77882219 -107 21 C-104.07737626 19.69012487 -101.62925763 17.90100293 -99.0625 16 C-70.04089784 -3.99466525 -33.9219077 -9.22936769 0 0 Z " fill="#4383E8" transform="translate(531,371)"/>
<path d="M0 0 C20.79 0 41.58 0 63 0 C63 9.57 63 19.14 63 29 C61.26194097 30.73805903 58.88395655 30.14555278 56.51806641 30.16113281 C54.76086777 30.17554413 54.76086777 30.17554413 52.96817017 30.19024658 C51.69218964 30.19449646 50.41620911 30.19874634 49.1015625 30.203125 C47.80052582 30.20882507 46.49948914 30.21452515 45.1590271 30.22039795 C42.39995939 30.23091672 39.64092089 30.23675346 36.88183594 30.24023438 C33.34522733 30.24571765 29.80900403 30.26973779 26.27251625 30.29820633 C22.90303863 30.32130553 19.53361525 30.32328081 16.1640625 30.328125 C14.2561644 30.3466452 14.2561644 30.3466452 12.3097229 30.36553955 C10.54306778 30.3610379 10.54306778 30.3610379 8.74072266 30.35644531 C7.18304672 30.36191376 7.18304672 30.36191376 5.59390259 30.36749268 C3 30 3 30 0 27 C0 18.09 0 9.18 0 0 Z " fill="#4B4F59" transform="translate(669,766)"/>
<path d="M0 0 C20.46 0 40.92 0 62 0 C62 9.24 62 18.48 62 28 C60.24481894 29.75518106 57.77650285 29.12760783 55.39453125 29.12939453 C54.19658936 29.13254669 52.99864746 29.13569885 51.7644043 29.13894653 C50.46027588 29.1369223 49.15614746 29.13489807 47.8125 29.1328125 C46.47110985 29.1334856 45.12971981 29.13445568 43.78833008 29.13571167 C40.97378379 29.13718836 38.15926918 29.13503504 35.34472656 29.13037109 C31.72959369 29.12467381 28.11453505 29.12795297 24.49940491 29.13394356 C21.72855058 29.13754997 18.95771398 29.13641022 16.18685913 29.13381577 C14.20310417 29.13282033 12.21934853 29.13586741 10.2355957 29.13894653 C9.03765381 29.13579437 7.83971191 29.13264221 6.60546875 29.12939453 C5.54481201 29.12859894 4.48415527 29.12780334 3.39135742 29.12698364 C1 29 1 29 0 28 C0 18.76 0 9.52 0 0 Z " fill="#505460" transform="translate(270,766)"/>
<path d="M0 0 C4.54286222 2.40000268 8.27543176 2.54243597 13.3125 1.75 C16.22788818 0.7702384 18.87919882 -0.35037323 21.3125 -2.25 C21.6425 -3.24 21.9725 -4.23 22.3125 -5.25 C22.9725 -5.25 23.6325 -5.25 24.3125 -5.25 C24.87799202 6.70910904 24.87799202 6.70910904 21.3125 10.75 C16.23992439 15.60082367 12.14134981 17.20618474 5.19921875 17.17578125 C0.6736152 16.50827004 -2.90455654 14.3623013 -6.8984375 12.21875 C-15.76503623 7.54950473 -27.30872964 7.21939671 -36.9921875 9.54296875 C-40.6587036 10.83966347 -43.92590746 12.27998194 -47.23828125 14.32421875 C-52.32507669 17.2854314 -57.92112132 17.51411181 -63.6875 16.75 C-68.86507597 14.65547966 -71.80252291 10.8919701 -74.04296875 5.88671875 C-75.09261901 2.40696912 -74.94544959 -0.63870571 -74.6875 -4.25 C-71.6581912 -3.18083219 -69.5020977 -2.10673459 -66.9375 -0.125 C-62.61838953 2.3667945 -59.47050824 2.76318194 -54.6875 1.75 C-50.43341611 0.21316724 -46.34818492 -1.6900226 -42.26171875 -3.62109375 C-29.57988726 -9.40068253 -11.58676201 -7.50993834 0 0 Z " fill="#4383E8" transform="translate(524.6875,439.25)"/>
<path d="M0 0 C20.46 0 40.92 0 62 0 C62 8.91 62 17.82 62 27 C61.67 27 61.34 27 61 27 C61 22.71 61 18.42 61 14 C41.2 14 21.4 14 1 14 C1 18.62 1 23.24 1 28 C0.67 28 0.34 28 0 28 C0 18.76 0 9.52 0 0 Z " fill="#434751" transform="translate(270,766)"/>
<path d="M0 0 C20.79 0 41.58 0 63 0 C63 4.62 63 9.24 63 14 C42.54 14 22.08 14 1 14 C1 17.96 1 21.92 1 26 C0.67 26 0.34 26 0 26 C0 17.42 0 8.84 0 0 Z " fill="#3B3D47" transform="translate(669,766)"/>
<path d="M0 0 C5.2460535 2.11775359 8.51707884 4.87061198 11 10 C11.8246573 15.52000338 11.74825056 20.4480729 9.3125 25.5 C4.96409298 30.20098056 1.78644234 32.71663298 -4.6875 33.375 C-9.73160861 33.31916116 -13.14952386 31.09635063 -17 28 C-21.03205624 23.7078111 -21.35605307 18.94047762 -21.28125 13.24609375 C-20.68514575 8.48553901 -17.83630105 5.73674141 -14.375 2.6875 C-9.71675159 -0.62230808 -5.61028335 -0.72892733 0 0 Z " fill="#4384E8" transform="translate(504,481)"/>
<path d="M0 0 C4.27835132 1.72710665 7.2211186 4.0086964 10.0625 7.625 C11 10 11 10 10 13 C8.2578125 14.3515625 8.2578125 14.3515625 6.125 15.625 C5.42632812 16.05039062 4.72765625 16.47578125 4.0078125 16.9140625 C-0.18434302 19.1814151 -4.32492315 19.75699643 -9 19 C-13.27960311 17.02772739 -16.75840383 14.40118245 -20 11 C-18.56314642 5.97101246 -16.05763331 4.04322498 -12 1 C-8.25023686 -0.87488157 -4.08286469 -0.53047439 0 0 Z " fill="#559DFD" transform="translate(504,481)"/>
<path d="M0 0 C2.09375 0.48046875 2.09375 0.48046875 4.65625 2.54296875 C6.47156677 6.2525291 6.74997237 8.39730732 6.09375 12.48046875 C4.09850077 15.41099106 2.66538515 17.12568378 -0.87890625 17.92578125 C-4.44533774 18.12576806 -6.50459205 17.78943641 -9.34375 15.60546875 C-11.94098593 12.07322788 -12.4243245 9.88410198 -11.90625 5.48046875 C-8.64376914 0.63936811 -5.58660015 -0.34450701 0 0 Z " fill="#7E75E6" transform="translate(695.90625,711.51953125)"/>
<path d="M0 0 C3.64146056 0.80345393 5.15231038 2.45282347 7.1953125 5.484375 C8.08245201 9.65393068 7.37662354 11.17841262 5.1953125 14.859375 C1.67306426 17.94134221 1.67306426 17.94134221 -1.8046875 18.171875 C-5.033967 17.90276837 -5.99001006 17.35696574 -8.8046875 15.421875 C-11.32398985 11.72164967 -11.5113216 9.8812094 -10.8046875 5.484375 C-8.28479822 0.33503603 -5.38467311 -0.31988157 0 0 Z " fill="#8B84DC" transform="translate(731.8046875,711.515625)"/>
<path d="M0 0 C3.46145669 0.86536417 4.94931405 2.62635769 6.9375 5.484375 C7.82463951 9.65393068 7.11881104 11.17841262 4.9375 14.859375 C1.43622195 17.92299329 1.43622195 17.92299329 -2.125 18.109375 C-6.35759682 17.43753423 -7.57379559 16.86901299 -10.0625 13.484375 C-11.50680855 10.59575791 -11.43938506 8.68789799 -11.0625 5.484375 C-7.96567477 1.03268873 -5.27078558 -0.35937174 0 0 Z " fill="#A1B545" transform="translate(328.0625,711.515625)"/>
<path d="M0 0 C3 2.0625 3 2.0625 5 5 C5.7878128 9.4117517 5.52975133 11.22192774 3 14.9375 C-1.15080314 17.79117716 -3.0301078 17.7099846 -8 17 C-10.5 15.5625 -10.5 15.5625 -12 13 C-12.76004105 8.68518361 -12.73570183 5.25682396 -10.5 1.4375 C-6.99753422 -0.57641782 -3.87856287 -0.87555677 0 0 Z " fill="#F9DE4E" transform="translate(295,712)"/>
<path d="M0 0 C0 3.74016583 -0.9341591 4.45276193 -3.375 7.1875 C-4.00148438 7.90292969 -4.62796875 8.61835938 -5.2734375 9.35546875 C-7 11 -7 11 -9 11 C-7.59928507 5.70841026 -4.14512755 3.22521956 0 0 Z " fill="#5FA1F6" transform="translate(414,374)"/>
</svg>
