<?xml version="1.0" encoding="UTF-8"?>
<svg xmlns="http://www.w3.org/2000/svg" version="1.1" width="2048" height="3072" viewBox="0 0 1524 2000">

<path d="M0 0 C160.71 0 321.42 0 487 0 C489.97 13.86 492.94 27.72 496 42 C499.39369812 56.78460225 499.39369812 56.78460225 502.81640625 71.5625 C504.92836587 80.65558176 506.97995709 89.76109807 509 98.875 C509.15938049 99.5937027 509.31876099 100.3124054 509.48297119 101.05288696 C511.49194769 110.11921006 513.480582 119.18995888 515.46484375 128.26171875 C515.67146637 129.20565491 515.87808899 130.14959106 516.0909729 131.12213135 C517.10268557 135.74416739 518.11272835 140.3665529 519.11914062 144.98974609 C519.48431866 146.66114512 519.84955026 148.33253245 520.21484375 150.00390625 C520.38112778 150.77087326 520.5474118 151.53784027 520.71873474 152.32804871 C521.36468012 155.27705601 522.04446561 158.13339684 523 161 C523 226.34 523 291.68 523 359 C338.2 359 153.4 359 -37 359 C-37 164 -37 164 -28 125 C-25.94002307 115.56085808 -25.94002307 115.56085808 -23.93258667 106.11138916 C-20.76446482 91.00056303 -17.43251878 75.93288127 -13.95996094 60.8894043 C-11.13202837 48.63358479 -8.40005893 36.35755459 -5.70092773 24.07275391 C-5.38787158 22.65396837 -5.07480255 21.23518568 -4.76171875 19.81640625 C-4.49319092 18.59381104 -4.22466309 17.37121582 -3.94799805 16.11157227 C-2.70568561 10.72352595 -1.34107909 5.36431637 0 0 Z " fill="#363638" transform="translate(269,328)"/>
<path d="M0 0 C160.71 0 321.42 0 487 0 C489.97 13.86 492.94 27.72 496 42 C499.39369812 56.78460225 499.39369812 56.78460225 502.81640625 71.5625 C505.95620681 85.08097024 508.9526587 98.63080512 511.93798828 112.18408203 C512.89930322 116.54699033 513.86590994 120.90871545 514.83309937 125.27032471 C515.6669871 129.03327281 516.49845393 132.79675312 517.3293457 136.56036377 C517.73086589 138.37739979 518.13319351 140.19425761 518.53637695 142.01092529 C519.09836038 144.54450056 519.65699859 147.07879206 520.21484375 149.61328125 C520.38112778 150.35960312 520.5474118 151.10592499 520.71873474 151.87486267 C520.95065269 152.93321068 520.95065269 152.93321068 521.18725586 154.01293945 C521.32078964 154.61717239 521.45432343 155.22140533 521.59190369 155.84394836 C523.37140582 165.2454018 522.65722878 170.4843395 522 181 C337.53 181 153.06 181 -37 181 C-37 161.88662132 -37 161.88662132 -35.34765625 155.28515625 C-35.17245453 154.55822067 -34.99725281 153.8312851 -34.81674194 153.08232117 C-34.4423932 151.53725152 -34.05962198 149.99419945 -33.66867065 148.45324707 C-32.59648968 144.2245476 -31.59011471 139.97985422 -30.5703125 135.73828125 C-30.35670578 134.85840546 -30.14309906 133.97852966 -29.92301941 133.07199097 C-27.56984233 123.33852824 -25.50224193 113.54787846 -23.4375 103.75 C-20.40498706 89.4324623 -17.25167946 75.14946678 -13.95996094 60.8894043 C-11.13202837 48.63358479 -8.40005893 36.35755459 -5.70092773 24.07275391 C-5.38787158 22.65396837 -5.07480255 21.23518568 -4.76171875 19.81640625 C-4.49319092 18.59381104 -4.22466309 17.37121582 -3.94799805 16.11157227 C-2.70568561 10.72352595 -1.34107909 5.36431637 0 0 Z " fill="#373739" transform="translate(269,328)"/>
<path d="M0 0 C137.28 0 274.56 0 416 0 C416 32.01 416 64.02 416 97 C278.72 97 141.44 97 0 97 C0 64.99 0 32.98 0 0 Z " fill="#FCFCFC" transform="translate(337,546)"/>
<path d="M0 0 C1 4 1 4 0 20 C-184.14 20 -368.28 20 -558 20 C-558 5 -558 5 -557 3 C-507.99270952 2.87025598 -458.9854137 2.74271246 -409.97811061 2.61781773 C-404.09038751 2.60281117 -398.20266444 2.58778777 -392.31494141 2.57275391 C-391.14361361 2.56976329 -389.97228581 2.56677268 -388.76546323 2.56369144 C-372.48109604 2.52207985 -356.19673142 2.47957216 -339.91236854 2.43630803 C-311.75408473 2.36149839 -283.59579672 2.28854344 -255.4375 2.21875 C-254.33300758 2.21600838 -253.22851517 2.21326676 -252.09055328 2.21044207 C-168.06026745 2.00222325 -84.03050765 1.93412782 0 2 C0 1.34 0 0.68 0 0 Z " fill="#565659" transform="translate(791,489)"/>
<path d="M0 0 C27.06 0 54.12 0 82 0 C82 17.49 82 34.98 82 53 C75.4 53 68.8 53 62 53 C62 59.27 62 65.54 62 72 C47.81 72 33.62 72 19 72 C19 65.4 19 58.8 19 52 C12.73 52 6.46 52 0 52 C0 34.84 0 17.68 0 0 Z " fill="#38383A" transform="translate(357,566)"/>
<path d="M0 0 C27.06 0 54.12 0 82 0 C82 17.16 82 34.32 82 52 C75.73 52 69.46 52 63 52 C63 58.6 63 65.2 63 72 C48.81 72 34.62 72 20 72 C20 65.4 20 58.8 20 52 C13.4 52 6.8 52 0 52 C0 34.84 0 17.68 0 0 Z " fill="#353537" transform="translate(563,566)"/>
<path d="M0 0 C27.06 0 54.12 0 82 0 C82 17.16 82 34.32 82 52 C75.4 52 68.8 52 62 52 C62 58.6 62 65.2 62 72 C47.81 72 33.62 72 19 72 C19 65.4 19 58.8 19 52 C12.73 52 6.46 52 0 52 C0 34.84 0 17.68 0 0 Z " fill="#353537" transform="translate(460,566)"/>
<path d="M0 0 C22.44 0 44.88 0 68 0 C68 17.16 68 34.32 68 52 C62.06 52 56.12 52 50 52 C50 58.6 50 65.2 50 72 C40.1 72 30.2 72 20 72 C20 65.4 20 58.8 20 52 C13.4 52 6.8 52 0 52 C0 34.84 0 17.68 0 0 Z " fill="#353537" transform="translate(666,566)"/>
<path d="M0 0 C0.52773343 2.64463022 1.04747257 5.29039393 1.5625 7.9375 C1.71396484 8.69224609 1.86542969 9.44699219 2.02148438 10.22460938 C2.39117799 12.14185767 2.70042238 14.0705525 3 16 C2 17 2 17 0.24729919 17.12025452 C-0.51437057 17.11803391 -1.27604034 17.11581329 -2.06079102 17.11352539 C-2.92160782 17.11344986 -3.78242462 17.11337433 -4.66932678 17.11329651 C-5.60473801 17.10813522 -6.54014923 17.10297394 -7.50390625 17.09765625 C-8.45692123 17.0962413 -9.40993622 17.09482635 -10.39183044 17.09336853 C-13.44875165 17.08775152 -16.50560077 17.07519616 -19.5625 17.0625 C-21.62955624 17.05748719 -23.69661362 17.05292391 -25.76367188 17.04882812 C-30.84247588 17.03777656 -35.9212257 17.02050055 -41 17 C-42.38529821 11.54538831 -43.2396943 6.63281599 -43 1 C-37.03686883 0.85743388 -31.07373401 0.71502143 -25.1105957 0.57275391 C-23.08032125 0.52429401 -21.05004781 0.47579148 -19.01977539 0.42724609 C-16.10823832 0.35763628 -13.19669767 0.28817779 -10.28515625 0.21875 C-9.3716188 0.19687622 -8.45808136 0.17500244 -7.51686096 0.15246582 C-1.11387171 0 -1.11387171 0 0 0 Z " fill="#57585A" transform="translate(780,436)"/>
<path d="M0 0 C1.26108078 0.0001133 1.26108078 0.0001133 2.54763794 0.00022888 C3.91020218 0.00797081 3.91020218 0.00797081 5.30029297 0.01586914 C6.22969696 0.01728409 7.15910095 0.01869904 8.1166687 0.02015686 C11.09197171 0.02576486 14.06720011 0.03831871 17.04248047 0.05102539 C19.0568023 0.05603936 21.07112531 0.06060245 23.08544922 0.06469727 C28.02948849 0.07573689 32.97347182 0.0930069 37.91748047 0.11352539 C37.7758169 2.03050476 37.62898463 3.94710262 37.47998047 5.86352539 C37.39876953 6.93086914 37.31755859 7.99821289 37.23388672 9.09790039 C36.91748047 12.11352539 36.91748047 12.11352539 35.91748047 16.11352539 C21.72748047 16.11352539 7.53748047 16.11352539 -7.08251953 16.11352539 C-8.21763565 9.3028287 -8.21763565 9.3028287 -7.27001953 5.30102539 C-7.09857422 4.53145508 -6.92712891 3.76188477 -6.75048828 2.96899414 C-5.54427315 -0.38160344 -3.15461421 -0.00944495 0 0 Z " fill="#57585A" transform="translate(250.08251953125,436.886474609375)"/>
<path d="M0 0 C0.3396019 1.87387477 0.67138691 3.74916697 1 5.625 C1.185625 6.66914063 1.37125 7.71328125 1.5625 8.7890625 C2 12 2 12 2 18 C-11.2 18 -24.4 18 -38 18 C-38.99 12.39 -39.98 6.78 -41 1 C-35.32169992 0.85742632 -29.64339583 0.71501403 -23.96508789 0.57275391 C-22.03181854 0.52429615 -20.0985503 0.47579363 -18.1652832 0.42724609 C-15.3927438 0.35763071 -12.62020045 0.28817425 -9.84765625 0.21875 C-8.97786636 0.19687622 -8.10807648 0.17500244 -7.21192932 0.15246582 C-1.11387171 0 -1.11387171 0 0 0 Z " fill="#565659" transform="translate(762,355)"/>
<path d="M0 0 C1.83655341 3.67310682 2.54167838 6.20088684 3.1875 10.1875 C3.36667969 11.25355469 3.54585937 12.31960938 3.73046875 13.41796875 C3.81941406 14.27003906 3.90835938 15.12210937 4 16 C3 17 3 17 -0.96899414 17.11352539 C-2.74105607 17.1133662 -4.5131226 17.10766785 -6.28515625 17.09765625 C-7.21597519 17.0962413 -8.14679413 17.09482635 -9.1058197 17.09336853 C-12.09141191 17.08775172 -15.07693029 17.0751964 -18.0625 17.0625 C-20.08137913 17.05748716 -22.10025943 17.05292388 -24.11914062 17.04882812 C-29.07945572 17.03777683 -34.03971532 17.02050095 -39 17 C-39.34087334 15.45998293 -39.67230953 13.91787594 -40 12.375 C-40.2784375 11.08722656 -40.2784375 11.08722656 -40.5625 9.7734375 C-41 7 -41 7 -41 1 C-27.47 0.67 -13.94 0.34 0 0 Z " fill="#57585A" transform="translate(770,396)"/>
<path d="M0 0 C0.90720795 0.00141495 1.81441589 0.0028299 2.74911499 0.00428772 C5.65308905 0.00989529 8.55698665 0.02244907 11.4609375 0.03515625 C13.42708222 0.04017027 15.39322815 0.04473335 17.359375 0.04882812 C22.1849254 0.05986719 27.01041847 0.0771369 31.8359375 0.09765625 C31.52771129 2.38990165 31.21422876 4.6814408 30.8984375 6.97265625 C30.72441406 8.24882812 30.55039062 9.525 30.37109375 10.83984375 C29.8359375 14.09765625 29.8359375 14.09765625 28.8359375 16.09765625 C14.6459375 16.42765625 0.4559375 16.75765625 -14.1640625 17.09765625 C-12.1640625 6.09765625 -12.1640625 6.09765625 -11.1640625 1.09765625 C-7.72801485 -0.62036757 -3.77967354 -0.02200555 0 0 Z " fill="#57585A" transform="translate(264.1640625,396.90234375)"/>
<path d="M0 0 C1.29422379 0.00212242 1.29422379 0.00212242 2.61459351 0.00428772 C5.3759098 0.00989437 8.13714562 0.02244798 10.8984375 0.03515625 C12.768228 0.04017039 14.63801976 0.04473345 16.5078125 0.04882812 C21.09638527 0.05986596 25.68489773 0.07713505 30.2734375 0.09765625 C30.13021647 1.63956779 29.98371961 3.18117517 29.8359375 4.72265625 C29.75472656 5.58117187 29.67351562 6.4396875 29.58984375 7.32421875 C29.25464553 10.26237596 28.75960079 13.18067649 28.2734375 16.09765625 C15.0734375 16.09765625 1.8734375 16.09765625 -11.7265625 16.09765625 C-12.86167862 9.28695956 -12.86167862 9.28695956 -11.9140625 5.28515625 C-11.74261719 4.51558594 -11.57117188 3.74601562 -11.39453125 2.953125 C-9.77559155 -1.54392972 -3.98818165 -0.02442483 0 0 Z " fill="#57575A" transform="translate(272.7265625,356.90234375)"/>
<path d="M0 0 C6.93 0 13.86 0 21 0 C21 6.6 21 13.2 21 20 C14.07 20 7.14 20 0 20 C0 13.4 0 6.8 0 0 Z " fill="#58585A" transform="translate(271,636)"/>
<path d="M0 0 C6.93 0 13.86 0 21 0 C21 6.6 21 13.2 21 20 C14.07 20 7.14 20 0 20 C0 13.4 0 6.8 0 0 Z " fill="#57575A" transform="translate(271,590)"/>
<path d="M0 0 C6.6 0 13.2 0 20 0 C20 6.6 20 13.2 20 20 C13.4 20 6.8 20 0 20 C0 13.4 0 6.8 0 0 Z " fill="#58585A" transform="translate(271,545)"/>
<path d="M0 0 C27.06 0 54.12 0 82 0 C82 17.16 82 34.32 82 52 C75.4 52 68.8 52 62 52 C62 51.67 62 51.34 62 51 C67.94 50.67 73.88 50.34 80 50 C80 34.16 80 18.32 80 2 C53.93 2 27.86 2 1 2 C1 18.17 1 34.34 1 51 C6.94 51 12.88 51 19 51 C19 51.33 19 51.66 19 52 C12.73 52 6.46 52 0 52 C0 34.84 0 17.68 0 0 Z " fill="#1A1A1C" transform="translate(357,566)"/>
<path d="M0 0 C0.495 1.98 0.495 1.98 1 4 C-20.78 3.505 -20.78 3.505 -43 3 C-43 2.67 -43 2.34 -43 2 C-42.0527002 1.97494385 -41.10540039 1.9498877 -40.12939453 1.92407227 C-36.56957063 1.82817231 -33.00986792 1.72899235 -29.45019531 1.62768555 C-27.9180043 1.58473143 -26.38577746 1.54303423 -24.85351562 1.50268555 C-16.5307742 1.28266529 -8.27606617 0.97897801 0 0 Z " fill="#313134" transform="translate(782,452)"/>
</svg>
